<?xml version="1.0" encoding="iso-8859-1"?>
<!-- Generator: Adobe Illustrator 19.1.0, SVG Export Plug-In . SVG Version: 6.00 Build 0)  -->
<!DOCTYPE svg PUBLIC "-//W3C//DTD SVG 1.1//EN" "http://www.w3.org/Graphics/SVG/1.1/DTD/svg11.dtd">
<svg version="1.1" id="Layer_1" xmlns="http://www.w3.org/2000/svg" xmlns:xlink="http://www.w3.org/1999/xlink" x="0px" y="0px"
	 width="512px" height="512px" viewBox="4 -76 512 512" style="enable-background:new 4 -76 512 512;" xml:space="preserve">
<g id="Artboard">
</g>
<g id="Continuous_Innovation" style="display:none;">
</g>
<g id="Scalable_Platform_1_" style="display:none;">
	<g style="display:inline;">
		
			<linearGradient id="SVGID_1_" gradientUnits="userSpaceOnUse" x1="297.6575" y1="364" x2="297.6575" y2="-85.0401" gradientTransform="matrix(1 0 0 -1 0 360)">
			<stop  offset="0" style="stop-color:#14B1E7"/>
			<stop  offset="1" style="stop-color:#1C75BC"/>
		</linearGradient>
		<path style="fill:url(#SVGID_1_);" d="M181.638,148.43l109.715,50.086c2.003,0.914,4.153,1.371,6.304,1.371
			s4.302-0.457,6.306-1.371l109.714-50.086c4.975-2.271,8.064-6.903,8.064-12.089c-0.001-5.186-3.091-9.817-8.066-12.088
			l-9.388-4.284l-106.629,48.674l-106.63-48.674l-9.388,4.284c-4.976,2.271-8.065,6.902-8.066,12.088
			C173.574,141.526,176.664,146.159,181.638,148.43z M184.799,131.175l6.229-2.843l106.63,48.674l106.629-48.674l6.229,2.843
			c2.264,1.033,3.615,2.965,3.615,5.166c0,2.202-1.352,4.134-3.615,5.167l-109.713,50.086c-1.971,0.897-4.322,0.897-6.291,0
			l-109.714-50.086c-2.264-1.033-3.615-2.965-3.615-5.167C181.183,134.14,182.535,132.208,184.799,131.175z"/>
		
			<linearGradient id="SVGID_2_" gradientUnits="userSpaceOnUse" x1="297.6575" y1="364" x2="297.6575" y2="-85.0401" gradientTransform="matrix(1 0 0 -1 0 360)">
			<stop  offset="0" style="stop-color:#14B1E7"/>
			<stop  offset="1" style="stop-color:#1C75BC"/>
		</linearGradient>
		<path style="fill:url(#SVGID_2_);" d="M181.778,87.623l109.539,50.005c2.015,0.92,4.178,1.38,6.34,1.38
			c2.163,0,4.326-0.46,6.341-1.38l109.539-50.005c5.002-2.284,8.109-6.941,8.108-12.154c0-5.213-3.107-9.869-8.108-12.152
			L303.998,13.311c-4.029-1.839-8.651-1.838-12.681,0L181.778,63.316c-5.001,2.283-8.108,6.939-8.108,12.152
			S176.776,85.339,181.778,87.623z M184.938,70.238l109.539-50.005c0.995-0.455,2.088-0.682,3.181-0.682
			c1.092,0,2.185,0.228,3.18,0.682l109.539,50.005c2.292,1.046,3.66,3.001,3.66,5.23c0,2.23-1.368,4.187-3.66,5.232l-109.539,50.005
			c-1.991,0.91-4.371,0.91-6.36,0L184.939,80.7c-2.292-1.046-3.66-3.002-3.66-5.232C181.278,73.239,182.646,71.284,184.938,70.238z"
			/>
		
			<linearGradient id="SVGID_3_" gradientUnits="userSpaceOnUse" x1="297.6585" y1="364" x2="297.6585" y2="-85.0401" gradientTransform="matrix(1 0 0 -1 0 360)">
			<stop  offset="0" style="stop-color:#14B1E7"/>
			<stop  offset="1" style="stop-color:#1C75BC"/>
		</linearGradient>
		<path style="fill:url(#SVGID_3_);" d="M405.866,181.561l-1.579-0.721l-106.629,48.674l-106.63-48.674l-1.579,0.721
			c-6.464,2.949-10.479,8.947-10.479,15.652c0,6.704,4.014,12.702,10.477,15.652l99.955,45.63c2.585,1.18,5.42,1.771,8.257,1.771
			c2.835,0,5.671-0.591,8.256-1.771l99.955-45.63c6.463-2.95,10.477-8.948,10.477-15.652
			C416.345,190.508,412.33,184.51,405.866,181.561z M402.709,205.943l-99.955,45.63c-3.193,1.457-7.003,1.456-10.192,0
			l-99.955-45.63c-3.774-1.723-6.028-4.986-6.028-8.73c0.001-3.237,1.686-6.115,4.583-7.949l106.497,48.613l106.496-48.613
			c2.897,1.834,4.582,4.712,4.583,7.949C408.737,200.957,406.483,204.221,402.709,205.943z"/>
		
			<linearGradient id="SVGID_4_" gradientUnits="userSpaceOnUse" x1="279.6035" y1="364" x2="279.6035" y2="-85.0401" gradientTransform="matrix(1 0 0 -1 0 360)">
			<stop  offset="0" style="stop-color:#14B1E7"/>
			<stop  offset="1" style="stop-color:#1C75BC"/>
		</linearGradient>
		<path style="fill:url(#SVGID_4_);" d="M486.974,318.244l-51.764-42.086v28.845H127.092V21.674h29.313L114.319-30.09L72.233,21.674
			h28.862v300.04l2.872,4.367l4.062,4.286h327.182v29.963L486.974,318.244z M111.3,322.758l-1.347-1.421l-1.249-1.9V14.065H88.225
			l26.094-32.094l26.094,32.094h-20.93v298.547H442.82V292.15l32.094,26.094l-32.094,26.094v-21.58H111.3z"/>
		
			<linearGradient id="SVGID_5_" gradientUnits="userSpaceOnUse" x1="271.026" y1="364" x2="271.026" y2="-85.0401" gradientTransform="matrix(1 0 0 -1 0 360)">
			<stop  offset="0" style="stop-color:#14B1E7"/>
			<stop  offset="1" style="stop-color:#1C75BC"/>
		</linearGradient>
		<polygon style="fill:url(#SVGID_5_);" points="369.941,366.508 172.111,366.508 172.111,356.997 164.502,356.997 164.502,383.629 
			172.111,383.629 172.111,374.117 369.941,374.117 369.941,383.629 377.55,383.629 377.55,356.997 369.941,356.997 		"/>
		
			<linearGradient id="SVGID_6_" gradientUnits="userSpaceOnUse" x1="49.4185" y1="364" x2="49.4185" y2="-85.0401" gradientTransform="matrix(1 0 0 -1 0 360)">
			<stop  offset="0" style="stop-color:#14B1E7"/>
			<stop  offset="1" style="stop-color:#1C75BC"/>
		</linearGradient>
		<polygon style="fill:url(#SVGID_6_);" points="36.103,78.323 45.614,78.323 45.614,276.153 36.103,276.153 36.103,283.763 
			62.734,283.763 62.734,276.153 53.223,276.153 53.223,78.323 62.734,78.323 62.734,70.714 36.103,70.714 		"/>
	</g>
</g>
<g id="Stopwatch" style="display:none;">
	<g style="display:inline;">
		
			<linearGradient id="SVGID_7_" gradientUnits="userSpaceOnUse" x1="262.193" y1="259" x2="262.193" y2="-143" gradientTransform="matrix(1 0 0 -1 0 360)">
			<stop  offset="0" style="stop-color:#14B1E7"/>
			<stop  offset="1" style="stop-color:#1C75BC"/>
		</linearGradient>
		<path style="fill:url(#SVGID_7_);" d="M262.193,73.588c-78.741,0-142.801,64.06-142.801,142.801s64.06,142.801,142.801,142.801
			s142.801-64.06,142.801-142.801S340.934,73.588,262.193,73.588z M262.193,351.59c-74.55,0-135.201-60.651-135.201-135.201
			S187.643,81.188,262.193,81.188s135.201,60.651,135.201,135.201S336.743,351.59,262.193,351.59z"/>
		
			<linearGradient id="SVGID_8_" gradientUnits="userSpaceOnUse" x1="262.1935" y1="259" x2="262.1935" y2="-143" gradientTransform="matrix(1 0 0 -1 0 360)">
			<stop  offset="0" style="stop-color:#14B1E7"/>
			<stop  offset="1" style="stop-color:#1C75BC"/>
		</linearGradient>
		<path style="fill:url(#SVGID_8_);" d="M262.193,53.571c-89.777,0-162.816,73.039-162.816,162.817
			c0,89.777,73.039,162.816,162.816,162.816c89.778,0,162.817-73.039,162.817-162.816C425.01,126.61,351.971,53.571,262.193,53.571z
			 M262.193,371.605c-85.587,0-155.217-69.63-155.217-155.217S176.606,61.17,262.193,61.17s155.218,69.631,155.218,155.218
			S347.78,371.605,262.193,371.605z"/>
		
			<linearGradient id="SVGID_9_" gradientUnits="userSpaceOnUse" x1="262.1935" y1="259" x2="262.1935" y2="-143" gradientTransform="matrix(1 0 0 -1 0 360)">
			<stop  offset="0" style="stop-color:#14B1E7"/>
			<stop  offset="1" style="stop-color:#1C75BC"/>
		</linearGradient>
		<path style="fill:url(#SVGID_9_);" d="M218.781,34.532h86.824c5.308,0,9.625-4.317,9.625-9.625V-2.461
			c0-5.307-4.317-9.625-9.625-9.625h-86.824c-5.307,0-9.624,4.317-9.624,9.625v27.369C209.157,30.214,213.474,34.532,218.781,34.532
			z M216.757-2.461c0-1.116,0.908-2.025,2.024-2.025h86.824c1.116,0,2.025,0.909,2.025,2.025v27.369
			c0,1.116-0.909,2.025-2.025,2.025h-86.824c-1.116,0-2.024-0.909-2.024-2.025V-2.461z"/>
		
			<linearGradient id="SVGID_10_" gradientUnits="userSpaceOnUse" x1="386.321" y1="259" x2="386.321" y2="-143" gradientTransform="matrix(1 0 0 -1 0 360)">
			<stop  offset="0" style="stop-color:#14B1E7"/>
			<stop  offset="1" style="stop-color:#1C75BC"/>
		</linearGradient>
		<path style="fill:url(#SVGID_10_);" d="M360.244,70.919l29.444,22.085c1.684,1.263,3.688,1.928,5.755,1.927
			c0.458,0,0.919-0.032,1.381-0.098c2.545-0.363,4.796-1.696,6.339-3.753l11.159-14.878c1.543-2.057,2.192-4.591,1.829-7.136
			s-1.696-4.795-3.753-6.339l-29.444-22.084c-2.057-1.543-4.588-2.191-7.136-1.829c-2.545,0.363-4.796,1.696-6.339,3.752
			L358.32,57.443c-1.543,2.057-2.192,4.591-1.829,7.136C356.854,67.125,358.187,69.377,360.244,70.919z M364.4,62.005l11.159-14.877
			c0.324-0.433,0.798-0.713,1.333-0.79c0.098-0.014,0.194-0.021,0.29-0.021c0.436,0,0.856,0.14,1.211,0.406l29.444,22.085
			c0.433,0.324,0.713,0.798,0.789,1.333c0.077,0.535-0.06,1.068-0.385,1.501L397.082,86.52c-0.324,0.433-0.798,0.713-1.333,0.789
			c-0.544,0.082-1.068-0.061-1.501-0.385l-29.444-22.085c-0.433-0.324-0.713-0.798-0.789-1.333
			C363.938,62.971,364.075,62.438,364.4,62.005z"/>
		
			<linearGradient id="SVGID_11_" gradientUnits="userSpaceOnUse" x1="132.7855" y1="259" x2="132.7855" y2="-143" gradientTransform="matrix(1 0 0 -1 0 360)">
			<stop  offset="0" style="stop-color:#14B1E7"/>
			<stop  offset="1" style="stop-color:#1C75BC"/>
		</linearGradient>
		<path style="fill:url(#SVGID_11_);" d="M119.469,93.182c1.878,1.888,4.351,2.832,6.823,2.832c2.456,0,4.913-0.932,6.788-2.796
			l26.095-25.956c1.823-1.812,2.831-4.227,2.838-6.798s-0.988-4.99-2.801-6.813l-13.115-13.187c-1.813-1.822-4.228-2.83-6.798-2.836
			c-0.01,0-0.019,0-0.027,0c-2.562,0-4.971,0.994-6.786,2.8L106.39,66.385c-3.762,3.742-3.778,9.849-0.036,13.611L119.469,93.182z
			 M111.75,71.773l26.096-25.957c0.382-0.38,0.889-0.589,1.428-0.589c0.002,0,0.004,0,0.005,0c0.542,0.001,1.05,0.213,1.431,0.597
			l13.115,13.186c0.382,0.383,0.591,0.893,0.589,1.433c-0.001,0.541-0.213,1.049-0.597,1.43l-26.095,25.956
			c-0.791,0.787-2.076,0.784-2.863-0.007l-13.115-13.186C110.956,73.845,110.959,72.561,111.75,71.773z"/>
		
			<linearGradient id="SVGID_12_" gradientUnits="userSpaceOnUse" x1="262.1935" y1="258.915" x2="262.1935" y2="-143.085" gradientTransform="matrix(1 0 0 -1 0 360)">
			<stop  offset="0" style="stop-color:#14B1E7"/>
			<stop  offset="1" style="stop-color:#1C75BC"/>
		</linearGradient>
		<path style="fill:url(#SVGID_12_);" d="M265.976,101.085h-7.566l-12.676,132.968c-0.461,1.618-0.685,3.118-0.685,4.576
			c0,9.453,7.69,17.144,17.144,17.144c9.454,0,17.145-7.69,17.145-17.144c0-1.454-0.224-2.954-0.685-4.575L265.976,101.085z
			 M262.193,248.173c-5.263,0-9.544-4.281-9.544-9.544c0-0.823,0.149-1.696,0.469-2.749l0.111-0.364l8.964-94.033l8.965,94.031
			l0.11,0.364c0.32,1.057,0.47,1.931,0.47,2.751C271.738,243.892,267.456,248.173,262.193,248.173z"/>
		
			<linearGradient id="SVGID_13_" gradientUnits="userSpaceOnUse" x1="369.6405" y1="259" x2="369.6405" y2="-143" gradientTransform="matrix(1 0 0 -1 0 360)">
			<stop  offset="0" style="stop-color:#14B1E7"/>
			<stop  offset="1" style="stop-color:#1C75BC"/>
		</linearGradient>
		<rect x="361.3" y="215.925" style="fill:url(#SVGID_13_);" width="16.681" height="7.6"/>
		
			<linearGradient id="SVGID_14_" gradientUnits="userSpaceOnUse" x1="151.131" y1="259" x2="151.131" y2="-143" gradientTransform="matrix(1 0 0 -1 0 360)">
			<stop  offset="0" style="stop-color:#14B1E7"/>
			<stop  offset="1" style="stop-color:#1C75BC"/>
		</linearGradient>
		<rect x="142.235" y="215.925" style="fill:url(#SVGID_14_);" width="17.792" height="7.6"/>
		
			<linearGradient id="SVGID_15_" gradientUnits="userSpaceOnUse" x1="264.557" y1="259" x2="264.557" y2="-143" gradientTransform="matrix(1 0 0 -1 0 360)">
			<stop  offset="0" style="stop-color:#14B1E7"/>
			<stop  offset="1" style="stop-color:#1C75BC"/>
		</linearGradient>
		<rect x="260.757" y="318.693" style="fill:url(#SVGID_15_);" width="7.6" height="17.792"/>
	</g>
</g>
<g id="Open_Source_Octocat" style="display:none;">
	<g style="display:inline;">
		
			<linearGradient id="SVGID_16_" gradientUnits="userSpaceOnUse" x1="260.2775" y1="347" x2="260.2775" y2="-106.3983" gradientTransform="matrix(1 0 0 -1 0 360)">
			<stop  offset="0" style="stop-color:#14B1E7"/>
			<stop  offset="1" style="stop-color:#1C75BC"/>
		</linearGradient>
		<path style="fill:url(#SVGID_16_);" d="M260.278,25.01c-85.419,0-154.912,69.493-154.912,154.912
			c0,66.834,42.574,125.906,105.939,146.995l0.509,0.131c5.547,1.028,8.986-0.648,10.894-2.235c2.493-2.074,3.923-5.271,3.923-8.771
			c0-1.654-0.029-5.057-0.067-9.475c-0.045-5.21-0.103-11.839-0.138-18.679l-0.024-4.69l-4.583,0.997
			c-37.925,8.249-46.168-14.362-46.493-15.305l-0.073-0.204c-6.709-17.046-16.385-22.931-18.356-23.984
			c-1.188-0.821-2.036-1.493-2.64-2.024c0.518-0.06,1.065-0.096,1.566-0.097c12.783,0.972,19.919,13.491,20.03,13.689
			c6.391,10.954,15.642,17.269,26.752,18.261c8.819,0.784,16.861-1.82,22.058-4.147l1.922-0.859l0.289-2.086
			c1.458-10.491,5.844-15.697,8.329-17.867l6.488-5.664l-8.558-0.974c-20.319-2.312-34.616-7.457-44.994-16.191
			c-13.783-11.601-20.484-29.497-20.484-54.713c0-14.625,4.904-27.409,14.577-37.998l1.627-1.78l-0.919-2.23
			c-1.521-3.689-5.808-16.821,0.704-35.07c4.128-0.118,15.901,1.096,36.681,15.165l1.455,0.985l1.693-0.471
			c11.443-3.179,24.177-4.89,36.788-4.947c12.647,0.058,25.393,1.769,36.857,4.948l1.693,0.469l1.454-0.985
			c20.83-14.119,32.617-15.297,36.625-15.177c6.536,18.255,2.248,31.393,0.727,35.083l-0.92,2.233l1.631,1.781
			c9.657,10.547,14.555,23.33,14.555,37.994c0,25.27-6.713,43.171-20.521,54.729c-10.378,8.686-24.709,13.788-45.1,16.056
			l-8.642,0.961l6.575,5.689c2.687,2.324,8.936,9.424,8.936,25.108c0,13.502-0.078,25.256-0.129,33.034
			c-0.026,3.879-0.045,6.78-0.045,8.436c0,3.547,1.437,6.766,3.942,8.833c1.485,1.225,3.899,2.496,7.522,2.496
			c1.043,0,2.186-0.105,3.436-0.348l0.479-0.126c63.313-21.105,105.853-80.17,105.853-146.975
			C415.19,94.503,345.697,25.01,260.278,25.01z M307.182,319.604c-1.455,0.257-3.326,0.333-4.446-0.593
			c-0.738-0.608-1.179-1.719-1.179-2.97c0-1.646,0.02-4.53,0.045-8.386c0.052-7.788,0.129-19.557,0.129-33.084
			c0-9.893-2.349-18.668-6.597-25.127c29.917-4.568,65.348-19.067,65.348-77.416c0-15.824-5.044-29.732-15.001-41.378
			c2.149-6.464,5.283-21.381-2.3-40.57l-0.661-1.673l-1.714-0.55c-1.453-0.466-14.828-3.93-43.352,14.99
			c-11.785-3.104-24.277-4.707-37.194-4.766c-12.882,0.059-25.364,1.661-37.129,4.766c-28.552-18.92-41.943-15.455-43.4-14.99
			l-1.716,0.549l-0.661,1.677c-7.566,19.192-4.428,34.108-2.278,40.57c-9.97,11.681-15.021,25.589-15.021,41.375
			c0,27.213,7.803,47.577,23.19,60.528c10.307,8.674,23.785,14.14,42.057,16.991c-2.66,4.071-4.582,9.076-5.61,14.692
			c-21.351,8.608-32.481-3.586-37.229-11.719c-0.367-0.667-9.186-16.334-26.226-17.531l-0.217-0.009
			c-2.656-0.015-9.012,0.381-10.465,4.972c-1.43,4.518,3.116,8.332,7.236,11.15l0.532,0.304c0.085,0.04,8.683,4.429,14.829,19.994
			c0.393,1.105,3.146,8.193,10.974,14.06c11.954,8.958,27.469,9.059,39.726,7.036c0.034,5.19,0.076,10.09,0.111,14.135
			c0.038,4.388,0.067,7.766,0.067,9.409c0,1.218-0.442,2.312-1.185,2.929c-1.125,0.938-2.968,0.886-4.405,0.648
			c-60.109-20.13-100.476-76.233-100.476-139.696c0-81.229,66.084-147.312,147.312-147.312S407.59,98.693,407.59,179.922
			C407.59,243.36,367.248,299.461,307.182,319.604z"/>
		
			<linearGradient id="SVGID_17_" gradientUnits="userSpaceOnUse" x1="260.278" y1="347" x2="260.278" y2="-106.3983" gradientTransform="matrix(1 0 0 -1 0 360)">
			<stop  offset="0" style="stop-color:#14B1E7"/>
			<stop  offset="1" style="stop-color:#1C75BC"/>
		</linearGradient>
		<path style="fill:url(#SVGID_17_);" d="M260.278,0.141c-97.074,0-176.05,78.976-176.05,176.05s78.976,176.05,176.05,176.05
			s176.05-78.976,176.05-176.05S357.352,0.141,260.278,0.141z M260.278,344.641c-92.884,0-168.45-75.566-168.45-168.45
			s75.566-168.45,168.45-168.45s168.45,75.566,168.45,168.45S353.162,344.641,260.278,344.641z"/>
	</g>
</g>
<g id="Member_Stories" style="display:none;">
	<g style="display:inline;">
		
			<linearGradient id="SVGID_18_" gradientUnits="userSpaceOnUse" x1="262.165" y1="333" x2="262.165" y2="28.9589" gradientTransform="matrix(1 0 0 -1 0 360)">
			<stop  offset="0" style="stop-color:#14B1E7"/>
			<stop  offset="1" style="stop-color:#1C75BC"/>
		</linearGradient>
		<path style="fill:url(#SVGID_18_);" d="M379.165,65.485c-36.311-21.295-81.646-34.009-121.274-34.009
			c-39.175,0-82.967,12.747-117.145,34.097c-37.925,23.691-58.811,53.959-58.811,85.227c0,37.729,49.109,69.881,81.607,91.155
			l0.613,0.402c0.131,1.421,0.197,2.853,0.197,4.279c0,14.908-11.939,30.364-30.417,39.377c-2.084,1.017-3.405,3.133-3.405,5.451
			v7.326c0,1.633,0.658,3.196,1.825,4.337c1.135,1.109,2.656,1.728,4.239,1.728c0.046,0,0.093,0,0.139-0.001
			c34.105-0.779,69.946-5.711,101.496-35.803c6.565,0.717,13.165,1.079,19.66,1.079c39.629,0,84.965-12.714,121.274-34.01
			c40.776-23.915,63.232-54.216,63.232-85.321C442.397,119.698,419.941,89.399,379.165,65.485z M373.029,225.658
			c-34.53,20.253-77.573,32.344-115.139,32.344c-6.955,0-14.044-0.447-21.068-1.328c-1.852-0.232-3.712,0.402-5.035,1.721
			c-15.946,15.884-37.303,30.814-84.173,33.852c18.015-11.461,28.868-28.327,28.868-45.609c0-2.914-0.219-5.846-0.65-8.713
			c-0.257-1.706-1.229-3.222-2.671-4.168l-2.975-1.948c-30.312-19.845-76.122-49.835-76.122-81.008
			c0-26.541,19.357-53.855,53.108-74.939c32.331-20.197,73.721-32.254,110.718-32.254c37.564,0,80.607,12.09,115.139,32.342
			c36.376,21.334,57.239,48.616,57.239,74.852C430.268,177.039,409.405,204.323,373.029,225.658z"/>
		
			<linearGradient id="SVGID_19_" gradientUnits="userSpaceOnUse" x1="199.0775" y1="333" x2="199.0775" y2="28.9589" gradientTransform="matrix(1 0 0 -1 0 360)">
			<stop  offset="0" style="stop-color:#14B1E7"/>
			<stop  offset="1" style="stop-color:#1C75BC"/>
		</linearGradient>
		<path style="fill:url(#SVGID_19_);" d="M197.862,128.863c-14.932,0.671-26.536,13.364-25.866,28.297
			c0.652,14.521,12.674,25.894,27.067,25.894c0.407,0,0.817-0.009,1.229-0.027c14.933-0.669,26.537-13.363,25.867-28.296
			C225.489,139.799,212.815,128.187,197.862,128.863z M199.749,170.909c-8.271,0.355-15.266-6.042-15.636-14.293
			s6.042-15.265,14.293-15.636c0.228-0.01,0.453-0.016,0.679-0.016c7.954,0,14.598,6.285,14.957,14.309
			C214.412,163.525,208,170.539,199.749,170.909z"/>
		
			<linearGradient id="SVGID_20_" gradientUnits="userSpaceOnUse" x1="265.4585" y1="333" x2="265.4585" y2="28.9589" gradientTransform="matrix(1 0 0 -1 0 360)">
			<stop  offset="0" style="stop-color:#14B1E7"/>
			<stop  offset="1" style="stop-color:#1C75BC"/>
		</linearGradient>
		<path style="fill:url(#SVGID_20_);" d="M282.118,137.582c-4.868-4.451-11.193-6.736-17.765-6.442
			c-6.589,0.296-12.668,3.139-17.118,8.007s-6.738,11.178-6.442,17.767c0.595,13.226,11.543,23.584,24.653,23.584
			c0.371,0,0.745-0.009,1.119-0.025c6.589-0.296,12.668-3.139,17.117-8.007c4.45-4.867,6.738-11.177,6.442-17.765
			C289.829,148.111,286.986,142.032,282.118,137.582z M274.73,164.281c-2.264,2.477-5.356,3.923-8.708,4.073
			c-6.929,0.316-12.801-5.066-13.112-11.985c-0.15-3.352,1.014-6.562,3.278-9.038c2.264-2.478,5.356-3.924,8.708-4.074
			c0.193-0.009,0.385-0.013,0.576-0.013c3.142,0,6.128,1.156,8.462,3.29c2.477,2.265,3.923,5.357,4.073,8.709
			S276.994,161.805,274.73,164.281z"/>
		
			<linearGradient id="SVGID_21_" gradientUnits="userSpaceOnUse" x1="329.5975" y1="333" x2="329.5975" y2="28.9589" gradientTransform="matrix(1 0 0 -1 0 360)">
			<stop  offset="0" style="stop-color:#14B1E7"/>
			<stop  offset="1" style="stop-color:#1C75BC"/>
		</linearGradient>
		<path style="fill:url(#SVGID_21_);" d="M356.679,149.294c-0.671-14.932-13.369-26.544-28.296-25.866
			c-14.933,0.669-26.537,13.363-25.867,28.296c0.324,7.233,3.446,13.908,8.791,18.794c5.037,4.604,11.479,7.101,18.26,7.101
			c0.414,0,0.829-0.01,1.245-0.028C345.745,176.921,357.349,164.228,356.679,149.294L356.679,149.294z M330.268,165.473
			c-3.984,0.184-7.824-1.208-10.777-3.908c-2.953-2.699-4.678-6.387-4.857-10.384c-0.37-8.252,6.042-15.266,14.293-15.636
			c0.228-0.01,0.453-0.016,0.679-0.016c7.953,0,14.597,6.285,14.957,14.31C344.932,158.089,338.52,165.103,330.268,165.473z"/>
	</g>
</g>
<g id="Refresh" style="display:none;">
	<g style="display:inline;">
		
			<linearGradient id="SVGID_22_" gradientUnits="userSpaceOnUse" x1="259.787" y1="301" x2="259.787" y2="-75.0013" gradientTransform="matrix(1 0 0 -1 0 360)">
			<stop  offset="0" style="stop-color:#14B1E7"/>
			<stop  offset="1" style="stop-color:#1C75BC"/>
		</linearGradient>
		<path style="fill:url(#SVGID_22_);" d="M221.028,381.042c-55.573,0-107.817-21.64-147.11-60.932
			C34.626,280.817,12.986,228.573,12.986,173S34.626,65.182,73.918,25.89c39.293-39.292,91.537-60.932,147.11-60.932h3.8v51.366
			h-3.8c-41.858,0-81.203,16.302-110.788,45.902C80.648,91.79,64.352,131.129,64.352,173s16.296,81.21,45.886,110.772
			c29.587,29.603,68.933,45.904,110.79,45.904c41.858,0,81.204-16.302,110.788-45.902c21.538-21.536,36.145-48.352,42.426-77.797
			h-88.645l110.496-126.28l110.495,126.28h-80.13c-7.625,47.81-31.892,91.636-68.575,123.708
			C320.004,362.804,271.401,381.042,221.028,381.042z M217.228-27.407C108.449-25.376,20.586,63.744,20.586,173
			c0,110.524,89.918,200.442,200.442,200.442c48.532,0,95.358-17.572,131.854-49.479c36.148-31.604,59.782-75.047,66.547-122.324
			l0.467-3.262h69.945l-93.747-107.14l-93.748,107.14h81.081l-0.82,4.483c-5.99,32.73-21.694,62.567-45.416,86.287
			c-31.019,31.035-72.272,48.128-116.162,48.128c-43.889,0-85.143-17.093-116.163-48.129C73.84,258.151,56.753,216.902,56.753,173
			S73.84,87.849,104.867,56.851c30.121-30.136,69.896-47.126,112.361-48.084V-27.407z"/>
	</g>
</g>
<g id="download" style="display:none;">
	<g style="display:inline;">
		
			<linearGradient id="SVGID_23_" gradientUnits="userSpaceOnUse" x1="259.6315" y1="340" x2="259.6315" y2="-109" gradientTransform="matrix(1 0 0 -1 0 360)">
			<stop  offset="0" style="stop-color:#14B1E7"/>
			<stop  offset="1" style="stop-color:#1C75BC"/>
		</linearGradient>
		<path style="fill:url(#SVGID_23_);" d="M273.387-56.005c-1.526-0.074-3.112-0.11-4.849-0.11c-0.949,0-3.139,0.01-5.092,0.02
			l-2.558,0.014c-0.386,0.002-0.743,0.023-1.073,0.061v-0.054l-1.199-0.006c-2.14-0.011-6.466-0.034-7.893-0.034
			c-1.747,0-3.328,0.036-4.829,0.11C118.383-49.892,15.214,59.056,15.913,186.858c0.546,102.232,66.03,193.373,162.95,226.791
			l3.867,1.333l1.045-3.955c0.147-0.559,3.56-13.907-0.52-35.604c-3.709-19.727-14.634-50.556-45.61-85.403l-1.969-2.059
			C111.51,259.271,98.2,222.895,98.2,185.522c0-87.864,71.565-159.348,159.53-159.348h3.793
			c87.969,0,159.537,71.483,159.537,159.348c0,37.413-13.328,73.815-37.499,102.466c-0.1,0.114-0.47,0.521-1.771,1.825
			c-27.646,27.683-38.799,58.947-43.285,80.3c-4.868,23.17-3.205,39.653-3.133,40.344l0.504,4.748l4.514-1.556
			c96.918-33.416,162.406-124.557,162.96-226.791C504.049,59.055,400.887-49.892,273.387-56.005z M342.7,404.754
			c-0.295-15.893,2.313-67.36,44.47-109.572c1.449-1.452,1.906-1.951,2.172-2.26c25.356-30.054,39.32-68.196,39.32-107.401
			c0-92.055-74.978-166.947-167.137-166.947h-3.793c-92.156,0-167.13,74.893-167.13,166.947c0,39.205,13.973,77.358,39.344,107.432
			l2.067,2.169c29.583,33.298,40.08,62.527,43.676,81.188c2.58,13.393,2.072,23.403,1.43,28.653
			c-91.546-33.53-153.085-120.63-153.606-218.148C22.837,63.029,122.76-42.494,246.264-48.414c1.38-0.068,2.839-0.102,4.46-0.102
			c1.419,0,5.724,0.023,7.853,0.035l5.051,0.006v-0.021c1.901-0.01,3.992-0.02,4.911-0.02c1.612,0,3.077,0.033,4.482,0.102
			c123.49,5.921,223.407,111.444,222.73,235.229C495.224,284.135,433.935,371.076,342.7,404.754z"/>
		
			<linearGradient id="SVGID_24_" gradientUnits="userSpaceOnUse" x1="261.722" y1="340" x2="261.722" y2="-109" gradientTransform="matrix(1 0 0 -1 0 360)">
			<stop  offset="0" style="stop-color:#14B1E7"/>
			<stop  offset="1" style="stop-color:#1C75BC"/>
		</linearGradient>
		<path style="fill:url(#SVGID_24_);" d="M218.369,73.685v125.479h-43.945l87.299,103.234l87.297-103.234h-45.48V73.685H218.369z
			 M332.64,206.763l-70.918,83.865l-70.918-83.865h35.164V81.284h69.972v125.479H332.64z"/>
	</g>
</g>
<g id="App_Developer" style="display:none;">
	<g style="display:inline;">
		
			<linearGradient id="SVGID_25_" gradientUnits="userSpaceOnUse" x1="384.686" y1="233.7635" x2="384.686" y2="42.6409" gradientTransform="matrix(1 0 0 -1 0 360)">
			<stop  offset="0" style="stop-color:#14B1E7"/>
			<stop  offset="1" style="stop-color:#1C75BC"/>
		</linearGradient>
		<path style="fill:url(#SVGID_25_);" d="M334.695,241.123c0,6.233,3.577,11.588,9.337,13.974c1.93,0.8,3.922,1.19,5.884,1.19
			c3.895-0.001,7.669-1.538,10.6-4.469l74.161-74.16l-74.16-74.161c-4.409-4.407-10.725-5.666-16.484-3.278
			c-5.76,2.386-9.337,7.74-9.337,13.974c0,4.04,1.573,7.839,4.431,10.696l52.771,52.768l-52.771,52.771
			C336.268,233.284,334.695,237.083,334.695,241.123z M344.499,235.801l58.146-58.145l-58.146-58.142
			c-1.421-1.422-2.204-3.312-2.204-5.322c0-3.148,1.736-5.747,4.646-6.952c0.984-0.407,1.985-0.607,2.967-0.607
			c1.92,0,3.762,0.766,5.235,2.239l68.786,68.786l-68.786,68.786c-2.227,2.225-5.29,2.836-8.202,1.631
			c-2.909-1.205-4.646-3.804-4.646-6.952C342.295,239.112,343.078,237.223,344.499,235.801z"/>
		
			<linearGradient id="SVGID_26_" gradientUnits="userSpaceOnUse" x1="132.8825" y1="233.7635" x2="132.8825" y2="42.641" gradientTransform="matrix(1 0 0 -1 0 360)">
			<stop  offset="0" style="stop-color:#14B1E7"/>
			<stop  offset="1" style="stop-color:#1C75BC"/>
		</linearGradient>
		<path style="fill:url(#SVGID_26_);" d="M182.872,114.192c0-6.233-3.577-11.588-9.337-13.974
			c-5.76-2.388-12.076-1.129-16.484,3.279l-74.159,74.16l74.159,74.16c2.932,2.931,6.706,4.469,10.601,4.469
			c1.962,0,3.954-0.391,5.884-1.19c5.76-2.386,9.337-7.74,9.337-13.974c0-4.04-1.573-7.839-4.431-10.695l-52.771-52.771
			l52.771-52.769C181.299,122.031,182.872,118.232,182.872,114.192z M173.068,119.514l-58.146,58.143l58.146,58.145
			c1.421,1.422,2.204,3.312,2.204,5.322c0,3.148-1.736,5.747-4.646,6.952c-2.91,1.206-5.976,0.595-8.201-1.631l-68.786-68.786
			l68.786-68.786c2.225-2.227,5.289-2.836,8.201-1.632c2.909,1.205,4.646,3.804,4.646,6.952
			C175.272,116.203,174.489,118.093,173.068,119.514z"/>
		
			<linearGradient id="SVGID_27_" gradientUnits="userSpaceOnUse" x1="260.667" y1="273" x2="260.667" y2="-74.2823" gradientTransform="matrix(1 0 0 -1 0 360)">
			<stop  offset="0" style="stop-color:#14B1E7"/>
			<stop  offset="1" style="stop-color:#1C75BC"/>
		</linearGradient>
		<path style="fill:url(#SVGID_27_);" d="M491.667,37.561h-462c-4.21,0-7.635,3.425-7.635,7.635v270.48
			c0,4.21,3.425,7.635,7.635,7.635h462c4.21,0,7.635-3.425,7.635-7.635V45.196C499.301,40.986,495.877,37.561,491.667,37.561z
			 M29.632,315.676L29.667,45.16l286.722,0.022L188.832,315.688L29.632,315.676z M491.702,315.676c0,0.02-0.016,0.035-0.035,0.035
			l-294.431-0.022L324.792,45.183l166.91,0.013V315.676z"/>
	</g>
</g>
<g id="announcement" style="display:none;">
	<g style="display:inline;">
		
			<linearGradient id="SVGID_28_" gradientUnits="userSpaceOnUse" x1="72.456" y1="175" x2="72.456" y2="-30" gradientTransform="matrix(1 0 0 -1 0 360)">
			<stop  offset="0" style="stop-color:#14B1E7"/>
			<stop  offset="1" style="stop-color:#1C75BC"/>
		</linearGradient>
		<polygon style="fill:url(#SVGID_28_);" points="29.645,156.82 107.558,242.524 115.267,235.517 37.354,149.812 		"/>
		
			<linearGradient id="SVGID_29_" gradientUnits="userSpaceOnUse" x1="450.335" y1="175" x2="450.335" y2="-30" gradientTransform="matrix(1 0 0 -1 0 360)">
			<stop  offset="0" style="stop-color:#14B1E7"/>
			<stop  offset="1" style="stop-color:#1C75BC"/>
		</linearGradient>
		<polygon style="fill:url(#SVGID_29_);" points="477.287,122.983 414.957,208.687 423.382,214.814 485.713,129.111 		"/>
		
			<linearGradient id="SVGID_30_" gradientUnits="userSpaceOnUse" x1="329.5695" y1="175" x2="329.5695" y2="-30" gradientTransform="matrix(1 0 0 -1 0 360)">
			<stop  offset="0" style="stop-color:#14B1E7"/>
			<stop  offset="1" style="stop-color:#1C75BC"/>
		</linearGradient>
		<polygon style="fill:url(#SVGID_30_);" points="346.418,17.672 336.095,16.265 312.721,187.673 323.044,189.081 		"/>
		
			<linearGradient id="SVGID_31_" gradientUnits="userSpaceOnUse" x1="173.7425" y1="175" x2="173.7425" y2="-30" gradientTransform="matrix(1 0 0 -1 0 360)">
			<stop  offset="0" style="stop-color:#14B1E7"/>
			<stop  offset="1" style="stop-color:#1C75BC"/>
		</linearGradient>
		<polygon style="fill:url(#SVGID_31_);" points="205.929,186.656 151.39,30.83 141.556,34.271 196.095,190.098 		"/>
		
			<linearGradient id="SVGID_32_" gradientUnits="userSpaceOnUse" x1="267.2395" y1="175" x2="267.2395" y2="-30" gradientTransform="matrix(1 0 0 -1 0 360)">
			<stop  offset="0" style="stop-color:#14B1E7"/>
			<stop  offset="1" style="stop-color:#1C75BC"/>
		</linearGradient>
		<path style="fill:url(#SVGID_32_);" d="M355.355,260.153c-23.618-14.476-54.911-22.447-88.116-22.447s-64.499,7.972-88.116,22.447
			c-24.414,14.963-37.858,35.128-37.858,56.78c0,1.184,0.12,2.271,0.226,3.231c0.041,0.374,0.083,0.748,0.115,1.124l0.285,3.342
			l3.16,1.123c36.359,12.929,78.612,19.763,122.188,19.763c43.577,0,85.829-6.834,122.188-19.763l3.16-1.124l0.285-3.341
			c0.032-0.377,0.074-0.751,0.115-1.126c0.106-0.96,0.227-2.047,0.227-3.229C393.214,295.281,379.768,275.116,355.355,260.153z
			 M382.795,317.033c-34.538,11.826-74.407,18.065-115.556,18.065s-81.017-6.239-115.556-18.064c0-0.034-0.001-0.067-0.001-0.101
			c0-17.89,11.679-34.9,32.885-47.897c22.002-13.485,51.361-20.912,82.672-20.912c31.31,0,60.67,7.427,82.672,20.912
			c21.206,12.997,32.885,30.008,32.885,47.897C382.796,316.967,382.795,317,382.795,317.033z"/>
	</g>
</g>
<g id="rabbit_head" style="display:none;">
	
		<linearGradient id="SVGID_33_" gradientUnits="userSpaceOnUse" x1="259.3716" y1="220" x2="259.3716" y2="-76" gradientTransform="matrix(1 0 0 -1 0 360)">
		<stop  offset="0" style="stop-color:#14B1E7"/>
		<stop  offset="1" style="stop-color:#1C75BC"/>
	</linearGradient>
	<path style="display:inline;fill:url(#SVGID_33_);" d="M391.022,136.358c8.404-15.972,28.779-28.678,48.493-40.972
		c29.275-18.256,62.457-38.947,54.991-75.024c-4.311-20.833-23.454-24.737-31.481-25.449c-30.724-2.744-75.221,19.276-92.926,28.871
		c-15.219,8.247-29.804,17.6-41.068,26.334c-14.112,10.942-22.976,20.762-26.345,29.189c-5.365,13.406-11.279,38.885-17.59,75.768
		c-16.92-5.036-34.613-5.443-51.659-1.185c-6.229-36.231-12.074-61.316-17.386-74.59c-3.369-8.424-12.233-18.242-26.345-29.183
		c-11.266-8.734-25.851-18.086-41.068-26.333c-17.7-9.596-62.175-31.622-92.923-28.871c-8.028,0.711-27.167,4.616-31.478,25.449
		C16.772,56.437,49.949,77.13,79.227,95.39c19.707,12.288,40.084,24.995,48.488,40.969c13.281,25.225,26.706,50.189,35.993,67.356
		c-12.737,17.559-21.28,37.061-25.02,56.642l-0.694,1.763h0.349c-1.198,6.805-1.815,13.613-1.815,20.346
		c0,33.026,15.327,55.524,45.556,66.871c24.736,9.285,53.797,9.285,75.017,9.285c21.22,0,50.28,0,75.017-9.285
		c30.229-11.347,45.556-33.845,45.556-66.871c0-4.147-0.26-8.436-0.773-12.815c3.079,1.346,6.015,2.14,8.777,2.369
		c9.164,0.768,17.417-4.08,26.976-9.689c8.173-4.796,17.436-10.232,29.287-13.429c5.506-1.486,5.579-5.523,5.47-6.726
		c-0.467-5.166-8.502-11.944-23.883-20.145c-9.951-5.307-24.473-11.745-32.646-12.426c-9.824-0.824-21.391,5.009-29.716,11.214
		c-2.506-4.688-5.221-9.193-8.108-13.457C362.736,189.498,376.833,163.31,391.022,136.358L391.022,136.358z M329.426,342.166
		c-23.436,8.797-51.692,8.797-72.325,8.797c-20.633,0-48.89,0-72.324-8.797c-27.312-10.251-40.588-29.779-40.588-59.699
		c0-6.663,0.686-13.488,2-20.346h59.469c1.393,14.989,6.952,27.187,13.613,27.187c6.663,0,12.231-12.178,13.623-27.187h52.989
		c1.235,15.473,6.875,27.187,13.683,27.187c6.807,0,12.435-11.718,13.671-27.187h54.758l0.207,1.143
		c1.201,6.631,1.811,13.092,1.811,19.203C370.013,312.387,356.737,331.915,329.426,342.166z M390.245,217.239
		c5.39,0.449,17.22,5.002,28.769,11.07c11.876,6.24,17.87,11.076,19.954,13.467c-12.364,3.486-21.821,9.037-30.191,13.948
		c-8.781,5.154-15.703,9.219-22.463,8.663c-3.407-0.284-7.565-1.974-12.033-4.879l-11.203-30.437
		C370.601,222.795,382.055,216.566,390.245,217.239z M353.058,224.029l11.201,30.432H149.242l11.978-30.432H353.058z
		 M345.204,205.778l-1.13,2.085l1.362,1.941c1.486,2.115,2.909,4.32,4.301,6.564H164.431c2.139-3.428,4.427-6.784,6.869-10.041
		l1.472-1.963l-1.168-2.157c-9.297-17.173-23.282-43.156-37.108-69.416c-9.37-17.809-30.642-31.073-51.22-43.905
		C53.49,70.31,25.356,52.762,31.74,21.914c1.652-7.986,7.271-17.83,24.654-19.371c1.609-0.144,3.261-0.213,4.953-0.213
		c28.436,0,67.511,19.443,83.641,28.188c25.503,13.82,57.554,35.634,63.952,51.627c5.31,13.271,11.25,39.241,17.654,77.188
		l0.72,4.264l4.146-1.229c18.204-5.396,37.365-4.939,55.418,1.326l4.282,1.486l0.751-4.471
		c6.498-38.705,12.516-65.136,17.888-78.559c6.396-15.997,38.447-37.812,63.951-51.633c17.094-9.264,59.942-30.524,88.597-27.975
		c17.387,1.542,23.006,11.385,24.658,19.371c6.385,30.851-21.753,48.396-51.552,66.979c-20.569,12.828-41.84,26.092-51.209,43.898
		C369.515,160.766,354.884,187.922,345.204,205.778z"/>
</g>
<g id="gear" style="display:none;">
	<g style="display:inline;">
		
			<linearGradient id="SVGID_34_" gradientUnits="userSpaceOnUse" x1="258.289" y1="294" x2="258.289" y2="-68.5521" gradientTransform="matrix(1 0 0 -1 0 360)">
			<stop  offset="0" style="stop-color:#14B1E7"/>
			<stop  offset="1" style="stop-color:#1C75BC"/>
		</linearGradient>
		<path style="fill:url(#SVGID_34_);" d="M427.021,218.794c-19.982-34.618-7.91-79.182,26.912-99.339l3.285-1.901L413.94,42.582
			l-3.301,1.938c-11.015,6.466-23.619,9.883-36.452,9.883c-40.018,0-72.574-32.782-72.574-73.076v-3.801l-86.551,0.014l0.029,3.828
			c0.097,12.845-3.249,25.502-9.678,36.607c-19.978,34.611-64.603,46.434-99.474,26.356l-3.289-1.894l-43.29,74.967l3.323,1.892
			c11.117,6.328,20.373,15.535,26.768,26.63c19.933,34.514,7.938,79.029-26.74,99.232l-3.271,1.905l43.269,74.954l3.298-1.924
			c10.966-6.396,23.516-9.778,36.29-9.778c39.812,0,72.363,32.604,72.561,72.678l0.019,3.781h86.527l-0.011-3.811
			c-0.036-12.663,3.311-25.188,9.677-36.221c19.925-34.521,64.47-46.386,99.299-26.449l3.285,1.881l43.282-74.953l-3.313-1.895
			C442.603,239.027,433.405,229.853,427.021,218.794z M410.815,311.895c-37.916-19.436-84.944-5.995-106.327,31.051
			c-6.397,11.086-10.035,23.537-10.613,36.23h-71.522c-2.178-42.497-37.331-76.459-80.055-76.459
			c-12.838,0-25.473,3.092-36.776,8.97l-35.757-61.941c35.787-23.131,47.659-70.582,26.271-107.616
			c-6.43-11.155-15.479-20.587-26.314-27.466l35.76-61.927c11.785,6.078,24.444,8.977,36.949,8.976
			c27.783-0.002,54.781-14.323,69.564-39.933c6.466-11.169,10.11-23.764,10.634-36.641l71.474-0.011
			c1.978,42.728,37.144,76.875,80.086,76.875c12.901,0,25.597-3.126,36.952-9.071l35.746,61.923
			c-35.938,23.087-47.89,70.59-26.446,107.738c6.415,11.113,15.405,20.508,26.145,27.358L410.815,311.895z"/>
		
			<linearGradient id="SVGID_35_" gradientUnits="userSpaceOnUse" x1="258.298" y1="294" x2="258.298" y2="-68.5521" gradientTransform="matrix(1 0 0 -1 0 360)">
			<stop  offset="0" style="stop-color:#14B1E7"/>
			<stop  offset="1" style="stop-color:#1C75BC"/>
		</linearGradient>
		<path style="fill:url(#SVGID_35_);" d="M258.298,97.046c-46.932,0-85.112,38.181-85.112,85.111
			c0,46.932,38.181,85.113,85.112,85.113s85.112-38.182,85.112-85.113C343.41,135.227,305.229,97.046,258.298,97.046z
			 M258.298,259.671c-42.74,0-77.513-34.772-77.513-77.514c0-42.74,34.772-77.512,77.513-77.512s77.513,34.771,77.513,77.512
			C335.81,224.898,301.038,259.671,258.298,259.671z"/>
	</g>
</g>
<g id="Join" style="display:none;">
	<g style="display:inline;">
		
			<linearGradient id="SVGID_36_" gradientUnits="userSpaceOnUse" x1="263.487" y1="264" x2="263.487" y2="-84.0517" gradientTransform="matrix(1 0 0 -1 0 360)">
			<stop  offset="0" style="stop-color:#14B1E7"/>
			<stop  offset="1" style="stop-color:#1C75BC"/>
		</linearGradient>
		<path style="fill:url(#SVGID_36_);" d="M270.434,141.04c-0.847-0.041-1.685-0.058-2.523-0.058c-0.483,0-1.621,0.017-2.64,0.034
			c-0.505,0.009-1.115,0.019-1.751,0.087v-0.054l-0.553-0.01c-1.055-0.02-3.184-0.058-3.904-0.058c-0.84,0-1.684,0.017-2.512,0.058
			c-64.571,3.094-116.817,58.265-116.464,122.982c0.276,51.773,33.438,97.929,82.518,114.851l4.312,1.486l1.164-4.409
			c0.299-1.13,6.962-28.075-23.427-62.262l-0.985-1.031c-11.617-13.818-18.014-31.325-18.014-49.311
			c0-42.346,34.492-76.797,76.888-76.797h1.885c42.398,0,76.892,34.451,76.892,76.797c0,18.028-6.424,35.571-18.047,49.349
			c-0.129,0.146-0.393,0.412-0.772,0.792c-27.065,27.101-23.877,60.423-23.728,61.828l0.562,5.293l5.031-1.735
			c49.078-16.921,82.241-63.076,82.521-114.85C387.24,199.305,334.998,144.135,270.434,141.04z M307.112,368.806
			c0.357-9.95,3.395-31.321,21.383-49.333c0.607-0.609,1.005-1.028,1.211-1.267c12.951-15.352,20.084-34.834,20.084-54.859
			c0-47.017-38.293-85.268-85.362-85.268h-1.885c-47.066,0-85.358,38.251-85.358,85.268c0,20.025,7.137,39.514,20.095,54.874
			l1.096,1.155c20.191,22.74,22.365,41.291,22.064,49.662c-42.963-17.058-71.633-58.632-71.881-105.062
			c-0.328-60.242,48.299-111.596,108.406-114.476c0.696-0.035,1.399-0.048,2.099-0.048c0.691,0,2.737,0.038,3.75,0.057
			c0.384,0.007,0.64,0.011,0.668,0.011h4.281l-0.001-0.066c0.055-0.001,0.105-0.001,0.149-0.001c0.7,0,1.401,0.013,2.113,0.048
			c60.096,2.881,108.72,54.234,108.392,114.477C378.166,310.197,349.753,351.606,307.112,368.806z"/>
		
			<linearGradient id="SVGID_37_" gradientUnits="userSpaceOnUse" x1="129.3615" y1="264" x2="129.3615" y2="-84.0517" gradientTransform="matrix(1 0 0 -1 0 360)">
			<stop  offset="0" style="stop-color:#14B1E7"/>
			<stop  offset="1" style="stop-color:#1C75BC"/>
		</linearGradient>
		<polygon style="fill:url(#SVGID_37_);" points="160.732,131.509 104.258,69.388 97.991,75.087 154.465,137.208 		"/>
		
			<linearGradient id="SVGID_38_" gradientUnits="userSpaceOnUse" x1="403.2595" y1="264" x2="403.2595" y2="-84.0517" gradientTransform="matrix(1 0 0 -1 0 360)">
			<stop  offset="0" style="stop-color:#14B1E7"/>
			<stop  offset="1" style="stop-color:#1C75BC"/>
		</linearGradient>
		<polygon style="fill:url(#SVGID_38_);" points="429.275,54.962 422.423,49.98 377.244,112.102 384.095,117.084 		"/>
		
			<linearGradient id="SVGID_39_" gradientUnits="userSpaceOnUse" x1="315.725" y1="264" x2="315.725" y2="-84.0517" gradientTransform="matrix(1 0 0 -1 0 360)">
			<stop  offset="0" style="stop-color:#14B1E7"/>
			<stop  offset="1" style="stop-color:#1C75BC"/>
		</linearGradient>
		<polygon style="fill:url(#SVGID_39_);" points="328.392,-26.02 320,-27.165 303.058,97.078 311.451,98.223 		"/>
		
			<linearGradient id="SVGID_40_" gradientUnits="userSpaceOnUse" x1="202.7775" y1="264" x2="202.7775" y2="-84.0517" gradientTransform="matrix(1 0 0 -1 0 360)">
			<stop  offset="0" style="stop-color:#14B1E7"/>
			<stop  offset="1" style="stop-color:#1C75BC"/>
		</linearGradient>
		<polygon style="fill:url(#SVGID_40_);" points="226.542,96.251 187.009,-16.697 179.013,-13.898 218.546,99.05 		"/>
	</g>
</g>
<g id="shop" style="display:none;">
	<g style="display:inline;">
		
			<linearGradient id="SVGID_41_" gradientUnits="userSpaceOnUse" x1="260.666" y1="251" x2="260.666" y2="-91" gradientTransform="matrix(1 0 0 -1 0 360)">
			<stop  offset="0" style="stop-color:#14B1E7"/>
			<stop  offset="1" style="stop-color:#1C75BC"/>
		</linearGradient>
		<path style="fill:url(#SVGID_41_);" d="M412.53,64.411l-38.389-5.214c-1.094-28.825-11.391-53.776-28.022-67.426
			c-11.355-9.319-24.714-12.78-38.642-10.012c-9.983,1.985-19.756,7.224-28.581,15.14c-3.012-3.429-6.267-6.495-9.75-9.148
			c-12.639-9.625-27.357-13.114-42.561-10.089c-17.689,3.518-34.838,15.887-48.285,34.83c-12.447,17.532-21.235,39.953-24.95,63.468
			l-44.492,5.38l-3.344,3.772v239.199l3.1,3.734l227.557,42.689l1.222-1.014l0.311,0.236l75.326-20.814l2.788-3.663V68.177
			L412.53,64.411z M278.186,8.316c9.063,13.089,14.981,30.562,16.882,50.505l-42.909,5.189
			C256.363,41.732,265.852,22.021,278.186,8.316z M228.068-14.885c13.008-2.588,25.619,0.416,36.474,8.682
			c3.192,2.431,6.175,5.258,8.934,8.435c-2.773,2.982-5.433,6.228-7.936,9.754c-10.43,14.691-17.891,33.344-21.272,52.978
			l-83.061,10.045C169.141,28.736,196.685-8.645,228.068-14.885z M332.892,362.387l-219.777-41.23V88.479l219.777-26.578V362.387z
			 M337.204,54.18l-0.193,0.168l-0.595-0.528l-33.802,4.088c-2.101-21.714-8.763-40.796-18.996-55.064
			c7.745-7.054,16.358-11.845,25.341-13.631c11.617-2.312,22.801,0.605,32.337,8.433c14.723,12.084,23.937,34.412,25.193,60.513
			L337.204,54.18z M408.218,342.587l-67.547,18.665V62.321l67.547,9.174V342.587z"/>
		
			<linearGradient id="SVGID_42_" gradientUnits="userSpaceOnUse" x1="215.8613" y1="251" x2="215.8613" y2="-91" gradientTransform="matrix(1 0 0 -1 0 360)">
			<stop  offset="0" style="stop-color:#14B1E7"/>
			<stop  offset="1" style="stop-color:#1C75BC"/>
		</linearGradient>
		<path style="fill:url(#SVGID_42_);" d="M194.676,243.911l8.693,3.695l1.748-9.283c0.265-1.408,2.247-14.191-9.646-29.326
			l-0.087-0.111l-0.091-0.107l-0.16-0.189c-3.051-4.176-4.83-9.631-5.015-15.389c-0.446-13.88,8.604-27.335,20.175-29.993
			l0.687-0.158c1.436-0.33,2.883-0.497,4.301-0.497c5.106,0,9.932,2.178,13.589,6.133c4.007,4.334,6.336,10.513,6.557,17.399
			c0.229,7.117-1.882,14.172-5.947,19.889c-0.035,0.042-0.076,0.09-0.123,0.145c-12.296,14.449-10.27,31.521-10.177,32.241
			l1.212,9.458l8.949-3.291c23.368-8.594,39.181-33.567,38.455-60.728c-0.391-14.656-5.623-28.11-14.731-37.882
			c-9.053-9.713-21.074-15.062-33.849-15.064h-0.004c-3.315,0-6.664,0.37-9.954,1.1c-0.397,0.088-0.805,0.19-1.241,0.311
			c-0.198,0.055-0.66,0.191-1.073,0.313l-0.488,0.145c-0.02,0.006-0.04,0.012-0.06,0.018l-0.065,0.017
			c-0.415,0.106-1.252,0.322-1.534,0.4c-0.43,0.119-0.827,0.241-1.214,0.371c-23.588,7.885-40.633,34.463-39.639,61.819
			C164.735,217.25,176.799,236.313,194.676,243.911z M206,140.733c0.274-0.092,0.552-0.176,0.829-0.252
			c0.339-0.094,1.564-0.405,1.6-0.416c0,0,1.274-0.382,1.619-0.478c0.283-0.079,0.567-0.151,0.854-0.215
			c2.796-0.62,5.574-0.92,8.311-0.92c21.517,0.002,40.264,18.536,40.984,45.549c0.651,24.338-13.606,46.083-33.481,53.392
			c0,0-1.832-14.293,8.427-26.349c0.203-0.239,0.338-0.402,0.396-0.481c5.065-7.035,7.767-15.874,7.482-24.723
			c-0.589-18.323-13.025-30.888-27.742-30.888c-1.967,0-3.976,0.225-6.002,0.69l-0.687,0.158
			c-15.502,3.562-26.626,20.319-26.069,37.644c0.237,7.38,2.571,14.397,6.649,19.865l0.324,0.383
			c10.105,12.86,8.153,23.223,8.153,23.223c-15.42-6.554-25.436-23.169-26.112-41.846C170.689,171.738,185.117,147.713,206,140.733z
			"/>
	</g>
</g>
<g id="ecosystem" style="display:none;">
	
		<linearGradient id="SVGID_43_" gradientUnits="userSpaceOnUse" x1="259.333" y1="290" x2="259.333" y2="-41" gradientTransform="matrix(1 0 0 -1 0 360)">
		<stop  offset="0" style="stop-color:#14B1E7"/>
		<stop  offset="1" style="stop-color:#1C75BC"/>
	</linearGradient>
	<path style="display:inline;fill:url(#SVGID_43_);" d="M259.334,14.534C167.544,14.534,92.867,89.21,92.867,181
		s74.677,166.467,166.467,166.467S425.799,272.79,425.799,181S351.124,14.534,259.334,14.534z M258.667,104.2
		c-10.035,0-18.2-8.165-18.2-18.2s8.165-18.2,18.2-18.2c10.035,0,18.2,8.165,18.2,18.2S268.702,104.2,258.667,104.2z
		 M263.466,339.814V231.608l51.654-43.707c1.168-0.988,1.581-2.527,1.2-3.91c0.086-0.318,0.147-0.645,0.147-0.99l-0.001-16.866
		c11.441-2.639,20-12.902,20-25.134c0-14.227-11.573-25.8-25.8-25.8s-25.8,11.573-25.8,25.8c0,13.621,10.611,24.802,24,25.73
		l0.001,16.27c0,0.075,0.018,0.145,0.022,0.219l-45.423,38.435v-110.31c11.94-2.256,21-12.759,21-25.345
		c0-14.227-11.573-25.8-25.8-25.8c-14.227,0-25.8,11.573-25.8,25.8c0,13.28,10.086,24.245,23,25.645v150.009l-45.423-38.435
		c0.004-0.074,0.022-0.144,0.022-0.219v-35.002c0-0.091-0.021-0.176-0.027-0.266c13.402-0.914,24.028-12.102,24.028-25.732
		c0-14.227-11.573-25.8-25.8-25.8s-25.8,11.573-25.8,25.8c0,12.267,8.608,22.555,20.099,25.157c-0.061,0.271-0.1,0.551-0.1,0.841
		V223c0,0.345,0.061,0.673,0.147,0.991c-0.381,1.383,0.032,2.922,1.2,3.91l51.654,43.707v68.215
		c-86.005-1.851-155.4-72.383-155.4-158.823c0-87.6,71.268-158.867,158.867-158.867C346.932,22.133,418.2,93.4,418.2,181
		C418.2,267.218,349.163,337.614,263.466,339.814z M310.667,159.2c-10.035,0-18.2-8.165-18.2-18.2s8.165-18.2,18.2-18.2
		s18.2,8.165,18.2,18.2S320.702,159.2,310.667,159.2z M208.667,180.2c-10.035,0-18.2-8.165-18.2-18.2s8.165-18.2,18.2-18.2
		s18.2,8.165,18.2,18.2S218.702,180.2,208.667,180.2z"/>
</g>
<g id="voice" style="display:none;">
	
		<linearGradient id="SVGID_44_" gradientUnits="userSpaceOnUse" x1="255.739" y1="324" x2="255.739" y2="28" gradientTransform="matrix(1 0 0 -1 0 360)">
		<stop  offset="0" style="stop-color:#14B1E7"/>
		<stop  offset="1" style="stop-color:#1C75BC"/>
	</linearGradient>
	<path style="display:inline;fill:url(#SVGID_44_);" d="M459.626,152.321c0-36.941-21.413-71.562-60.296-97.483
		C360.921,29.232,309.927,15.13,255.739,15.13S150.557,29.232,112.148,54.838C73.265,80.76,51.852,115.38,51.852,152.321
		s21.413,71.562,60.296,97.483c38.409,25.606,89.403,39.708,143.591,39.708c0.814,0,1.626-0.012,2.438-0.018
		c0.458,0.195,0.96,0.304,1.489,0.304c0.555,0,1.079-0.125,1.555-0.34c22.715-0.4,44.891-3.284,66.032-8.601
		c18.817,27.035,17.766,58.659,17.752,58.979c-0.062,1.47,0.729,2.844,2.032,3.527c0.555,0.291,1.161,0.435,1.764,0.435
		c0.812,0,1.619-0.26,2.293-0.769c44.654-33.763,51.783-69.374,49.469-94.063C438.673,223.138,459.626,188.891,459.626,152.321z
		 M258.667,93.2c-10.035,0-18.2-8.165-18.2-18.2c0-10.036,8.165-18.2,18.2-18.2c10.035,0,18.2,8.165,18.2,18.2
		S268.702,93.2,258.667,93.2z M394.447,243.916c-1.201,0.793-1.852,2.196-1.679,3.626c4.564,37.873-18.149,66.392-40.356,84.761
		c-0.816-12.196-4.54-36.451-20.535-58.033c-0.728-0.981-1.868-1.537-3.053-1.537c-0.32,0-0.643,0.04-0.962,0.124
		c-20.581,5.386-42.209,8.384-64.396,8.95v-61.199l51.654-43.707c1.168-0.988,1.581-2.527,1.2-3.91
		c0.086-0.318,0.147-0.645,0.147-0.99l-0.001-16.866c11.441-2.639,20-12.902,20-25.134c0-14.227-11.573-25.8-25.8-25.8
		s-25.8,11.573-25.8,25.8c0,13.621,10.611,24.802,24,25.73l0.001,16.27c0,0.075,0.018,0.145,0.022,0.219l-45.423,38.435v-110.31
		c11.94-2.256,21-12.759,21-25.345c0-14.226-11.573-25.8-25.8-25.8c-14.227,0-25.8,11.574-25.8,25.8
		c0,13.28,10.086,24.245,23,25.645v150.009l-45.423-38.435c0.004-0.074,0.022-0.144,0.022-0.219v-35.002
		c0-0.091-0.021-0.176-0.027-0.266c13.402-0.914,24.028-12.102,24.028-25.732c0-14.227-11.573-25.8-25.8-25.8
		s-25.8,11.573-25.8,25.8c0,12.267,8.608,22.555,20.099,25.157c-0.061,0.271-0.1,0.551-0.1,0.841V212
		c0,0.345,0.061,0.673,0.147,0.991c-0.381,1.383,0.032,2.922,1.2,3.91l51.654,43.707v21.304c-0.043,0-0.085,0.001-0.128,0.001
		c-108.233,0-196.287-58.135-196.287-129.592S147.506,22.73,255.739,22.73s196.287,58.134,196.287,129.591
		C452.026,186.866,431.577,219.396,394.447,243.916z M310.667,148.2c-10.035,0-18.2-8.165-18.2-18.2s8.165-18.2,18.2-18.2
		s18.2,8.165,18.2,18.2S320.702,148.2,310.667,148.2z M208.667,169.2c-10.035,0-18.2-8.165-18.2-18.2s8.165-18.2,18.2-18.2
		s18.2,8.165,18.2,18.2S218.702,169.2,208.667,169.2z"/>
</g>
<g id="access" style="display:none;">
	<g style="display:inline;">
		
			<linearGradient id="SVGID_45_" gradientUnits="userSpaceOnUse" x1="116.986" y1="281" x2="116.986" y2="-29.1032" gradientTransform="matrix(1 0 0 -1 0 360)">
			<stop  offset="0" style="stop-color:#14B1E7"/>
			<stop  offset="1" style="stop-color:#1C75BC"/>
		</linearGradient>
		<path style="fill:url(#SVGID_45_);" d="M119.212,186.127c-0.334-0.016-0.669-0.023-1.004-0.023c-0.153,0-0.515,0.005-0.838,0.01
			l-0.371,0.007c-0.007,0-0.013,0-0.02,0h-0.018c-0.323-0.006-0.976-0.017-1.196-0.017c-0.337,0-0.675,0.007-1.011,0.024
			c-21.216,1.017-38.39,19.149-38.274,40.419c0.091,17.023,10.99,32.197,27.121,37.759l7.736,2.667l2.089-7.912
			c0.212-0.802,0.841-3.749,0.041-7.999c-0.981-5.215-3.646-10.298-7.922-15.108l-0.095-0.107l-0.099-0.103l-0.084-0.088
			c-2.158-2.635-3.344-5.94-3.344-9.332c0-8.148,6.64-14.777,14.802-14.777h0.52c8.162,0,14.803,6.629,14.803,14.777
			c0,3.389-1.183,6.691-3.337,9.323c-9.433,9.464-8.512,20.991-8.376,22.275l1.007,9.497l9.028-3.113
			c16.13-5.562,27.03-20.736,27.122-37.76C157.609,205.276,140.437,187.144,119.212,186.127z M127.894,257.121
			c0,0-0.949-8.949,6.217-16.124c0.138-0.138,0.229-0.232,0.268-0.278c3.397-4.026,5.27-9.139,5.27-14.395
			c0-12.338-10.05-22.377-22.403-22.377h-0.52c-12.353,0-22.402,10.039-22.402,22.377c0,5.256,1.873,10.368,5.273,14.399l0.268,0.28
			c8.071,9.08,6.213,16.117,6.213,16.117c-13.084-4.511-21.925-16.814-21.998-30.616c-0.094-17.254,13.833-31.961,31.047-32.787
			c0.211-0.01,0.425-0.015,0.637-0.015c0.259,0,1.192,0.019,1.22,0.019c-0.005,0,0.963-0.019,1.223-0.019
			c0.213,0,0.425,0.004,0.64,0.015c17.211,0.825,31.139,15.533,31.045,32.787C149.819,240.306,140.978,252.609,127.894,257.121z"/>
		
			<linearGradient id="SVGID_46_" gradientUnits="userSpaceOnUse" x1="261.6665" y1="281" x2="261.6665" y2="-29.1032" gradientTransform="matrix(1 0 0 -1 0 360)">
			<stop  offset="0" style="stop-color:#14B1E7"/>
			<stop  offset="1" style="stop-color:#1C75BC"/>
		</linearGradient>
		<path style="fill:url(#SVGID_46_);" d="M451.682,28.399H71.651c-22.378,0-40.584,18.206-40.584,40.584v12.416v7.6v63v7.6v106.416
			c0,22.378,18.206,40.584,40.584,40.584h380.031c22.378,0,40.584-18.206,40.584-40.584V68.984
			C492.267,46.605,474.061,28.399,451.682,28.399z M38.667,88.999H484.37v63H38.667V88.999z M484.667,266.015
			c0,18.217-14.768,32.984-32.984,32.984H71.651c-18.217,0-32.984-14.768-32.984-32.984V159.599H484.37h0.297V266.015z
			 M484.667,81.399h-0.297H38.667V68.983c0-18.217,14.768-32.984,32.984-32.984h380.031c18.217,0,32.984,14.768,32.984,32.984
			L484.667,81.399L484.667,81.399z"/>
		
			<linearGradient id="SVGID_47_" gradientUnits="userSpaceOnUse" x1="231.667" y1="281" x2="231.667" y2="-29.1032" gradientTransform="matrix(1 0 0 -1 0 360)">
			<stop  offset="0" style="stop-color:#14B1E7"/>
			<stop  offset="1" style="stop-color:#1C75BC"/>
		</linearGradient>
		<path style="fill:url(#SVGID_47_);" d="M179.667,198.399h-7.6v7.6v12v7.6h7.6h104h7.6v-7.6v-12v-7.6h-7.6H179.667z
			 M283.667,217.999h-104v-12h104V217.999z"/>
		
			<linearGradient id="SVGID_48_" gradientUnits="userSpaceOnUse" x1="209.118" y1="281" x2="209.118" y2="-29.1032" gradientTransform="matrix(1 0 0 -1 0 360)">
			<stop  offset="0" style="stop-color:#14B1E7"/>
			<stop  offset="1" style="stop-color:#1C75BC"/>
		</linearGradient>
		<path style="fill:url(#SVGID_48_);" d="M179.667,231.399h-7.6v7.6v12v7.6h7.6h58.902h7.6v-7.6v-12v-7.6h-7.6H179.667z
			 M238.569,250.999h-58.902v-12h58.902V250.999z"/>
	</g>
</g>
<g id="commit" style="display:none;">
	<g style="display:inline;">
		
			<linearGradient id="SVGID_49_" gradientUnits="userSpaceOnUse" x1="262.4995" y1="296" x2="262.4995" y2="-119.159" gradientTransform="matrix(1 0 0 -1 0 360)">
			<stop  offset="0" style="stop-color:#14B1E7"/>
			<stop  offset="1" style="stop-color:#1C75BC"/>
		</linearGradient>
		<path style="fill:url(#SVGID_49_);" d="M113.76,143.762l129.41,106.1V146.739h-26.132L262.5,82.178l45.463,64.561h-26.132v103.123
			l129.408-106.101c6.031-4.945,9.49-12.254,9.49-20.053c0-7.8-3.459-15.108-9.49-20.054L278.941-4.813
			c-9.527-7.811-23.355-7.811-32.883,0L113.76,103.655c-6.031,4.945-9.49,12.254-9.49,20.054
			C104.27,131.508,107.729,138.816,113.76,143.762z M118.579,109.532L250.877,1.063c3.368-2.761,7.495-4.141,11.623-4.141
			c4.127,0,8.256,1.381,11.623,4.141l132.298,108.469c4.264,3.496,6.709,8.663,6.709,14.177c0,5.513-2.445,10.68-6.709,14.176
			l-116.99,95.919v-79.465h33.179l-60.11-85.36l-60.108,85.359h33.179v79.465L118.58,137.884c-4.264-3.496-6.709-8.663-6.709-14.176
			C111.87,118.195,114.315,113.028,118.579,109.532z"/>
		
			<linearGradient id="SVGID_50_" gradientUnits="userSpaceOnUse" x1="262.5005" y1="296" x2="262.5005" y2="-119.159" gradientTransform="matrix(1 0 0 -1 0 360)">
			<stop  offset="0" style="stop-color:#14B1E7"/>
			<stop  offset="1" style="stop-color:#1C75BC"/>
		</linearGradient>
		<path style="fill:url(#SVGID_50_);" d="M113.76,198.376l132.299,108.469c4.764,3.906,10.602,5.859,16.441,5.858
			c5.838,0,11.679-1.953,16.441-5.858L411.24,198.376c6.031-4.945,9.49-12.254,9.49-20.054c0-7.799-3.459-15.107-9.49-20.053
			l-0.477-0.391l-4.818,5.877l0.477,0.391c4.263,3.496,6.708,8.663,6.708,14.176c0,5.514-2.445,10.681-6.708,14.177L274.124,300.968
			c-6.736,5.521-16.512,5.521-23.246,0L118.579,192.499c-4.264-3.496-6.709-8.663-6.709-14.177c0-5.513,2.445-10.68,6.709-14.176
			l-4.818-5.877c-6.031,4.945-9.49,12.254-9.49,20.053C104.27,186.122,107.729,193.431,113.76,198.376z"/>
		
			<linearGradient id="SVGID_51_" gradientUnits="userSpaceOnUse" x1="262.5" y1="296" x2="262.5" y2="-119.159" gradientTransform="matrix(1 0 0 -1 0 360)">
			<stop  offset="0" style="stop-color:#14B1E7"/>
			<stop  offset="1" style="stop-color:#1C75BC"/>
		</linearGradient>
		<path style="fill:url(#SVGID_51_);" d="M411.236,218.997l-0.477-0.39l-4.811,5.883l0.473,0.387
			c4.263,3.496,6.708,8.663,6.708,14.177s-2.445,10.681-6.708,14.177L274.124,361.699c-6.736,5.521-16.512,5.521-23.246,0
			L118.579,253.23c-4.264-3.496-6.709-8.663-6.709-14.177s2.445-10.681,6.709-14.177L113.76,219
			c-6.031,4.945-9.49,12.254-9.49,20.054s3.459,15.108,9.49,20.054l132.299,108.469c4.764,3.906,10.602,5.859,16.441,5.858
			c5.838,0,11.679-1.953,16.441-5.858l132.299-108.47c6.031-4.945,9.49-12.254,9.49-20.054S417.271,223.945,411.236,218.997z"/>
	</g>
</g>
<g id="Training" style="display:none;">
	
		<linearGradient id="SVGID_52_" gradientUnits="userSpaceOnUse" x1="267.779" y1="248" x2="267.779" y2="-55.0149" gradientTransform="matrix(1 0 0 -1 0 360)">
		<stop  offset="0" style="stop-color:#14B1E7"/>
		<stop  offset="1" style="stop-color:#1C75BC"/>
	</linearGradient>
	<path style="display:inline;fill:url(#SVGID_52_);" d="M404.793,178.533V94.446c0.35,0.004,0.695,0.021,1.046,0.021
		c8.955,0,17.716-1.231,26.036-3.661l-2.129-7.295c-7.63,2.227-15.673,3.356-23.907,3.356c-37.168,0-67.407-23.193-67.407-51.701
		h-0.207v-8.04c8.821-0.035,17.45-1.26,25.65-3.654l-2.129-7.296c-7.63,2.228-15.673,3.357-23.907,3.357
		c-35.403,0-64.498-21.047-67.184-47.681c0.113-1.33,0.192-2.667,0.192-4.019h-0.415h-7.185h-0.415c0,1.352,0.078,2.689,0.192,4.019
		c-2.686,26.634-31.781,47.681-67.185,47.681c-8.282,0-16.369-1.143-24.037-3.395l-2.143,7.292
		c8.245,2.422,16.921,3.661,25.795,3.696v13.982c-3.857,25.718-32.402,45.758-66.948,45.758c-8.282,0-16.369-1.143-24.037-3.395
		l-2.143,7.291c8.364,2.457,17.172,3.703,26.18,3.703c0.127,0,0.252-0.007,0.379-0.008v84.074H87.283l83.521,116.931l19.96-19.295
		l75.108,107.97l68.583-90.771l16.008,15.341l97.812-130.175L404.793,178.533L404.793,178.533z M239.133,177.57V137.8H294.2v39.771
		L239.133,177.57L239.133,177.57z M231.534,130.2v47.505h-95.05V96.467h260.709v81.238h-95.394V130.2H231.534z M295.466,42.2V16.731
		c3.786,2.057,7.825,3.84,12.067,5.328V42.2H295.466z M315.133,24.349c4.962,1.249,10.145,2.099,15.491,2.504V42.2h-15.491V24.349z
		 M287.867,12.008V42.2h-17.4V-6.13C274.754,0.776,280.689,6.928,287.867,12.008z M262.867-5.599V42.2h-16.4V11.544
		C253.168,6.688,258.741,0.881,262.867-5.599z M203.053,41.661c0.296-2.134,0.459-4.299,0.459-6.495h-0.459v-8.313
		c5.705-0.433,11.218-1.381,16.48-2.77V42.2h-16.48V41.661z M227.133,21.705c4.127-1.504,8.05-3.295,11.733-5.343V42.2h-11.733
		V21.705z M201.196,49.8h131.951c5.581,17.32,20.832,31.609,40.919,39.067H160.278C180.364,81.409,195.616,67.12,201.196,49.8z
		 M349.536,297.292l-15.992-15.325l-67.417,89.229l-74.224-106.698l-20.04,19.373l-69.813-97.738h331.008L349.536,297.292z"/>
</g>
<g id="community-projects" style="display:none;">
	
		<linearGradient id="SVGID_53_" gradientUnits="userSpaceOnUse" x1="260.371" y1="277" x2="260.371" y2="-14.0429" gradientTransform="matrix(1 0 0 -1 0 360)">
		<stop  offset="0" style="stop-color:#14B1E7"/>
		<stop  offset="1" style="stop-color:#1C75BC"/>
	</linearGradient>
	<path style="display:inline;fill:url(#SVGID_53_);" d="M424.284,184.836c-0.538,0-1.071,0.023-1.601,0.056l-21.745-95.271
		c7.06-3.501,11.925-10.761,11.925-19.175c0-11.827-9.588-21.415-21.415-21.415c-6.984,0-13.168,3.358-17.077,8.531l-93.464-45.009
		c0.151-1.027,0.255-2.07,0.255-3.139c0-11.827-9.588-21.415-21.415-21.415s-21.415,9.588-21.415,21.415
		c0,0.958,0.085,1.894,0.207,2.819L145.621,56.98c-4.613-5.815-11.733-9.555-19.715-9.555c-13.874,0-25.161,11.288-25.161,25.163
		c0,10.517,6.488,19.542,15.67,23.297l-22.073,96.706c-0.539-0.041-1.079-0.082-1.629-0.082c-11.827,0-21.415,9.588-21.415,21.414
		c0,11.827,9.588,21.415,21.415,21.415c3.595,0,6.977-0.896,9.952-2.461l64.23,80.542c-3.85,4.421-6.19,10.191-6.19,16.501
		c0,13.874,11.287,25.161,25.161,25.161c12.366,0,22.669-8.968,24.765-20.74h102.41c2.547,8.98,10.789,15.566,20.585,15.566
		c11.827,0,21.415-9.588,21.415-21.415c0-5.007-1.732-9.602-4.611-13.249l65.114-81.65c2.723,1.012,5.667,1.567,8.738,1.567
		c13.875,0,25.162-11.287,25.162-25.162C449.446,196.123,438.159,184.836,424.284,184.836z M415.358,186.477
		c-7.527,2.866-13.335,9.243-15.408,17.123l-115.044-25.235c-0.043-4.906-1.499-9.479-3.978-13.336l97.558-77.566
		c3.601,2.748,8.084,4.398,12.964,4.398c0.772,0,1.534-0.045,2.285-0.125L415.358,186.477z M277.417,178.59
		c0,9.741-7.926,17.667-17.668,17.667c-9.741,0-17.667-7.926-17.667-17.667c0-9.742,7.926-17.668,17.667-17.668
		C269.491,160.922,277.417,168.848,277.417,178.59z M278.518,19.722l92.437,44.515c-0.595,1.966-0.922,4.049-0.922,6.209
		c0,4.232,1.244,8.165,3.362,11.487l-97.415,77.452c-3.349-2.835-7.445-4.809-11.949-5.585V30.399
		C270.28,29.13,275.536,25.14,278.518,19.722z M240.835,19.448c3.118,5.865,8.884,10.087,15.702,11.115V153.64
		c-4.637,0.594-8.881,2.452-12.377,5.22l-96.175-74.214c1.965-3.583,3.084-7.692,3.084-12.058c0-3.205-0.609-6.268-1.706-9.09
		L240.835,19.448z M108.241,72.588c0-9.742,7.926-17.667,17.667-17.667c9.742,0,17.668,7.926,17.668,17.667
		s-7.926,17.667-17.668,17.667C116.167,90.255,108.241,82.329,108.241,72.588z M101.606,194.459l22.097-96.812
		c0.727,0.063,1.462,0.102,2.205,0.102c6.814,0,13.001-2.727,17.536-7.141l95.571,73.748c-2.79,4.051-4.428,8.954-4.428,14.234
		c0,0.119,0.007,0.236,0.009,0.354L111.951,204.56C109.78,200.106,106.12,196.524,101.606,194.459z M108.581,228.27
		c3.438-3.799,5.549-8.82,5.549-14.347c0-0.723-0.038-1.436-0.108-2.14l121.794-25.438c1.748,5.382,5.26,9.976,9.856,13.09
		l-53.115,106.231c-2.131-0.588-4.372-0.909-6.688-0.909c-4.866,0-9.412,1.393-13.266,3.795L108.581,228.27z M185.869,347.586
		c-9.741,0-17.667-7.926-17.667-17.667c0-9.742,7.926-17.668,17.667-17.668c9.742,0,17.668,7.926,17.668,17.668
		C203.537,339.66,195.611,347.586,185.869,347.586z M312.298,326.845H210.836c-0.931-7.604-5.264-14.167-11.43-18.12l53.031-106.061
		c2.315,0.705,4.77,1.087,7.312,1.087c3.043,0,5.962-0.543,8.664-1.538l52.034,109.425
		C315.849,315.24,312.769,320.672,312.298,326.845z M344.82,310.259c-3.26-2.005-7.083-3.182-11.191-3.182
		c-2.29,0-4.491,0.368-6.56,1.033L274.99,198.592c4.17-3.185,7.317-7.641,8.86-12.785l115.3,25.291
		c0.331,7.639,4.083,14.401,9.759,18.797L344.82,310.259z M424.284,227.665c-9.741,0-17.667-7.926-17.667-17.668
		c0-9.741,7.926-17.667,17.667-17.667c9.742,0,17.668,7.926,17.668,17.667C441.952,219.739,434.026,227.665,424.284,227.665z"/>
</g>
<g id="global_perception_study">
	
		<linearGradient id="SVGID_54_" gradientUnits="userSpaceOnUse" x1="256.667" y1="294.0479" x2="256.667" y2="-45.936" gradientTransform="matrix(1 0 0 -1 0 360)">
		<stop  offset="0" style="stop-color:#14B1E7"/>
		<stop  offset="1" style="stop-color:#1C75BC"/>
	</linearGradient>
	<path style="fill:url(#SVGID_54_);" d="M431,117.894c0-10.222-8.287-18.508-18.509-18.508c-0.768,0-1.518,0.061-2.262,0.152
		c-27.859-52.494-83.094-88.333-146.549-88.333c-74.447,0-137.586,49.324-158.466,117.009c-0.847-0.108-1.707-0.169-2.582-0.169
		c-11.211,0-20.299,9.088-20.299,20.299c0,9.661,6.752,17.74,15.791,19.791c-0.156,2.937-0.238,5.892-0.238,8.867
		c0,91.421,74.375,165.795,165.795,165.795S429.477,268.421,429.477,177c0-15.315-2.097-30.146-6.002-44.235
		C428.033,129.394,431,123.997,431,117.894z M403.009,133.766l-20.759,47.593h-18.183c0.022-1.45,0.036-2.903,0.036-4.359
		c0-35.274-6.607-68.88-18.833-96.898h44.37c5.22,6.769,9.913,13.966,14.004,21.535c-5.754,3.139-9.66,9.242-9.66,16.258
		C393.984,124.644,397.61,130.533,403.009,133.766z M104.692,177c0-2.848,0.079-5.678,0.228-8.49
		c1.861-0.209,3.645-0.67,5.319-1.346l10.292,14.196h-15.776C104.714,179.91,104.692,178.457,104.692,177z M170.067,177
		c0-36.442,7.262-70.054,19.45-96.898h40.381c-1.218,3.62-1.888,7.492-1.888,11.523c0,8.146,2.698,15.658,7.246,21.701
		l-30.463,68.033h-34.689C170.08,179.91,170.067,178.457,170.067,177z M357.26,181.359h-23.72l-36.799-74.192
		c2.248-4.708,3.509-9.977,3.509-15.542c0-4.031-0.671-7.903-1.888-11.523h39.485c12.188,26.845,19.45,60.456,19.45,96.898
		C357.297,178.457,357.283,179.91,357.26,181.359z M367.808,214.469c-1.802-1.141-3.795-2.008-5.923-2.537
		c1.001-7.78,1.668-15.718,1.99-23.768h15.406L367.808,214.469z M164.353,230.209l-30.483-42.045h29.618
		c0.543,13.621,2.076,26.925,4.543,39.678C166.719,228.502,165.487,229.296,164.353,230.209z M170.301,188.164h31.444
		l-17.356,38.761c-2.222-0.819-4.623-1.267-7.128-1.267c-0.906,0-1.796,0.064-2.67,0.178
		C172.305,213.835,170.837,201.215,170.301,188.164z M267.085,181.359v-53.745c10.306-0.835,19.384-5.992,25.426-13.661
		l33.433,67.405h-58.859V181.359z M240.285,118.745c5.457,4.801,12.369,7.985,19.993,8.794v53.821h-48.03L240.285,118.745z
		 M197.859,246.255c0-6.417-2.936-12.149-7.537-15.926l18.88-42.165h51.077v85.734h-70.761c-1.31-2.885-2.563-5.846-3.756-8.882
		C192.895,261.78,197.859,254.6,197.859,246.255z M267.085,188.164h62.234l14.074,28.375c-4.127,3.716-6.723,9.099-6.723,15.089
		c0,7.602,4.182,14.223,10.367,17.702c-2.622,8.683-5.708,16.898-9.189,24.568h-70.762L267.085,188.164L267.085,188.164z
		 M349.176,212.881l-12.26-24.717h20.146c-0.326,7.925-0.994,15.69-1.982,23.256C353.006,211.611,351.022,212.113,349.176,212.881z
		 M295.251,73.295c-5.811-9.846-16.157-16.688-28.167-17.662V18.125c26.937,1.644,51.009,22.699,67.499,55.169h-39.331V73.295z
		 M260.278,55.71c-11.628,1.233-21.604,7.984-27.271,17.585h-40.227c16.488-32.47,40.561-53.526,67.498-55.169V55.71z
		 M125.465,188.164l34.271,47.27c-1.945,3.145-3.072,6.851-3.072,10.821c0,11.375,9.222,20.597,20.597,20.597
		c0.637,0,1.266-0.033,1.888-0.09c0.942,2.416,1.923,4.795,2.944,7.135h-44.37c-18.568-24.079-30.395-53.604-32.636-85.734H125.465z
		 M260.278,280.704v55.169c-26.937-1.644-51.008-22.699-67.498-55.169L260.278,280.704L260.278,280.704z M267.085,280.704h67.499
		c-16.489,32.47-40.562,53.525-67.499,55.169V280.704z M345.269,273.898c3.094-7.09,5.83-14.536,8.188-22.28
		c1.141,0.199,2.312,0.309,3.511,0.309c11.211,0,20.299-9.088,20.299-20.299c0-4.625-1.549-8.885-4.152-12.298l13.594-31.166h35.566
		c-2.24,32.129-14.067,61.654-32.636,85.734H345.269z M384.096,73.295h-41.959c-2.164-4.455-4.472-8.754-6.932-12.87
		c-10.169-17.022-22.192-29.936-35.343-38.259C333.162,29.945,362.469,48.219,384.096,73.295z M227.501,22.167
		c-13.151,8.323-25.173,21.237-35.343,38.259c-2.459,4.117-4.768,8.415-6.932,12.87h-41.959
		C164.894,48.219,194.202,29.945,227.501,22.167z M137.725,80.102h44.37c-12.226,28.018-18.833,61.624-18.833,96.898
		c0,1.456,0.013,2.909,0.035,4.359h-34.36l-12.894-17.784c4.222-3.72,6.889-9.163,6.889-15.232c0-7.941-4.563-14.812-11.205-18.147
		C117.382,111.869,126.274,94.951,137.725,80.102z M143.268,280.704h41.959c2.164,4.455,4.472,8.754,6.932,12.87
		c10.169,17.022,22.192,29.936,35.343,38.259C194.202,324.054,164.895,305.781,143.268,280.704z M299.862,331.833
		c13.151-8.323,25.174-21.237,35.343-38.259c2.459-4.117,4.768-8.415,6.932-12.87h41.958
		C362.468,305.78,333.161,324.054,299.862,331.833z M422.672,177c0,1.458-0.023,2.91-0.062,4.359h-32.933l19.666-45.089
		l-0.548-0.239c1.195,0.243,2.432,0.371,3.698,0.371c1.644,0,3.229-0.235,4.746-0.637C420.774,148.921,422.672,162.742,422.672,177z
		"/>
</g>
<g id="global_marketing" style="display:none;">
	<g style="display:inline;">
		
			<linearGradient id="SVGID_55_" gradientUnits="userSpaceOnUse" x1="262.5005" y1="262" x2="262.5005" y2="-47.0065" gradientTransform="matrix(1 0 0 -1 0 360)">
			<stop  offset="0" style="stop-color:#14B1E7"/>
			<stop  offset="1" style="stop-color:#1C75BC"/>
		</linearGradient>
		<path style="fill:url(#SVGID_55_);" d="M262.5,110.167c-72.693,0-131.833,59.14-131.833,131.833s59.14,131.833,131.833,131.833
			S394.334,314.693,394.334,242S335.193,110.167,262.5,110.167z M352.827,158.853h-11.562C338.439,151.904,331.63,147,323.667,147
			c-1.645,0-3.233,0.231-4.755,0.624c-5.682-9.111-12.085-16.703-19.102-22.657C320.346,131.528,338.548,143.354,352.827,158.853z
			 M334.072,242c0,0.531-0.019,1.056-0.023,1.586h-37.677c-1.981-15.272-14.089-27.356-29.372-29.302v-46.432h37.76
			c0.932,9.624,9.039,17.147,18.906,17.147c0.726,0,1.439-0.05,2.143-0.129C331.201,202.288,334.072,221.757,334.072,242z
			 M190.927,242c0-27.132,5.135-52.887,14.624-74.147H258v46.474c-15.125,2.078-27.071,14.099-29.038,29.259H190.95
			C190.946,243.056,190.927,242.531,190.927,242z M306.069,158.853H267v-39.434c16.349,1.765,31.756,13.116,43.968,32.478
			C308.85,153.804,307.16,156.17,306.069,158.853z M258,119.418v39.434h-48.029c0.842-1.558,1.708-3.087,2.601-4.583
			C225.004,133.461,240.993,121.254,258,119.418z M258,281.673v34.474h-52.448c-8.245-18.473-13.186-40.345-14.343-63.562h37.775
			C231.018,267.666,242.931,279.603,258,281.673z M323.667,303c-8.062,0-14.797,5.617-16.545,13.147H267v-34.432
			c15.226-1.938,27.301-13.939,29.35-29.13h37.441c-0.894,17.942-4.058,35.07-9.254,50.458C324.247,303.029,323.96,303,323.667,303z
			 M182.202,252.586c1.101,22.972,5.773,44.756,13.575,63.562h-31.138c-13.655-17.978-22.474-39.815-24.511-63.562H182.202z
			 M258,325.147v39.434c-17.007-1.836-32.996-14.042-45.428-34.851c-0.894-1.496-1.76-3.025-2.601-4.583L258,325.147L258,325.147z
			 M267,364.582v-39.434h40.465c0.776,2.444,2.098,4.639,3.811,6.466C299.015,351.274,283.486,362.802,267,364.582z
			 M360.361,316.147h-20.15c-0.992-4.277-3.587-7.937-7.131-10.299c5.49-16.29,8.811-34.373,9.716-53.262h42.075
			C382.835,276.333,374.016,298.17,360.361,316.147z M225.189,124.967c-7.532,6.392-14.358,14.668-20.344,24.688
			c-1.764,2.952-3.427,6.027-4.999,9.198h-27.673C186.451,143.354,204.654,131.528,225.189,124.967z M164.639,167.853h31.138
			c-8.992,21.676-13.849,47.303-13.849,74.147c0,0.531,0.019,1.056,0.023,1.586h-42.264c-0.007-0.529-0.02-1.056-0.02-1.586
			C139.667,214.168,148.977,188.473,164.639,167.853z M172.173,325.147h27.673c1.572,3.172,3.235,6.246,4.999,9.198
			c5.986,10.019,12.812,18.296,20.344,24.688C204.654,352.472,186.451,340.646,172.173,325.147z M299.81,359.033
			c7.031-5.966,13.444-13.577,19.135-22.712c1.501,0.433,3.081,0.679,4.722,0.679c7.594,0,14.021-4.981,16.202-11.853h12.958
			C338.548,340.646,320.346,352.472,299.81,359.033z M385.314,243.586h-42.265c0.004-0.53,0.023-1.055,0.023-1.586
			c0-21.296-3.06-41.826-8.808-60.229c4.586-3.087,7.748-8.122,8.309-13.918h17.788c15.662,20.62,24.973,46.315,24.973,74.147
			C385.334,242.53,385.32,243.057,385.314,243.586z"/>
		
			<linearGradient id="SVGID_56_" gradientUnits="userSpaceOnUse" x1="126.055" y1="262" x2="126.055" y2="-47.0065" gradientTransform="matrix(1 0 0 -1 0 360)">
			<stop  offset="0" style="stop-color:#14B1E7"/>
			<stop  offset="1" style="stop-color:#1C75BC"/>
		</linearGradient>
		<polygon style="fill:url(#SVGID_56_);" points="157.445,126.688 101.362,64.213 94.665,70.225 150.748,132.699 		"/>
		
			<linearGradient id="SVGID_57_" gradientUnits="userSpaceOnUse" x1="400.071" y1="262" x2="400.071" y2="-47.0065" gradientTransform="matrix(1 0 0 -1 0 360)">
			<stop  offset="0" style="stop-color:#14B1E7"/>
			<stop  offset="1" style="stop-color:#1C75BC"/>
		</linearGradient>
		<polygon style="fill:url(#SVGID_57_);" points="426.478,52.158 419.232,46.819 373.664,108.655 380.91,113.995 		"/>
		
			<linearGradient id="SVGID_58_" gradientUnits="userSpaceOnUse" x1="312.8395" y1="262" x2="312.8395" y2="-47.0065" gradientTransform="matrix(1 0 0 -1 0 360)">
			<stop  offset="0" style="stop-color:#14B1E7"/>
			<stop  offset="1" style="stop-color:#1C75BC"/>
		</linearGradient>
		<polygon style="fill:url(#SVGID_58_);" points="326.155,-29.574 317.245,-30.846 299.524,93.288 308.434,94.56 		"/>
		
			<linearGradient id="SVGID_59_" gradientUnits="userSpaceOnUse" x1="199.8585" y1="262" x2="199.8585" y2="-47.0065" gradientTransform="matrix(1 0 0 -1 0 360)">
			<stop  offset="0" style="stop-color:#14B1E7"/>
			<stop  offset="1" style="stop-color:#1C75BC"/>
		</linearGradient>
		<polygon style="fill:url(#SVGID_59_);" points="223.527,91.933 184.704,-21.26 176.19,-18.34 215.013,94.853 		"/>
	</g>
</g>
<g id="network_access" style="display:none;">
	<g style="display:inline;">
		
			<linearGradient id="SVGID_60_" gradientUnits="userSpaceOnUse" x1="278.4995" y1="285" x2="278.4995" y2="-86.0121" gradientTransform="matrix(1 0 0 -1 0 360)">
			<stop  offset="0" style="stop-color:#14B1E7"/>
			<stop  offset="1" style="stop-color:#1C75BC"/>
		</linearGradient>
		<path style="fill:url(#SVGID_60_);" d="M409.633,108c0-72.307-58.826-131.133-131.134-131.133
			c-72.307,0-131.133,58.826-131.133,131.133c0,56.485,35.899,104.744,86.08,123.158H232.4v19.2h-11v94.6h24.5v23h18.996v53.684
			h27.607v-53.684H311.5v-23H336v-94.6h-11v-19.2h-1.446C373.735,212.744,409.633,164.485,409.633,108z M284.904,414.042h-12.408
			v-45.689h12.408V414.042z M303.9,360.358h-50.4v-15.006h50.4V360.358z M206.227,108c0-28.116,5.528-54.063,14.818-74.847H274.7
			v45.984c-16.493,1.427-29.609,14.622-30.916,31.149h-37.54C206.236,109.525,206.227,108.764,206.227,108z M350.755,110.286
			h-39.206c-1.262-15.966-13.547-28.823-29.25-30.964v-46.17h37.41c-0.012,0.283-0.043,0.561-0.043,0.847c0,10.493,8.507,19,19,19
			c1.51,0,2.972-0.195,4.38-0.528c4.938,16.704,7.725,35.569,7.725,55.528C350.772,108.764,350.763,109.525,350.755,110.286z
			 M376.706,182.848h-21.19c-0.608-4.797-3.208-8.962-6.952-11.651c5.447-16.308,8.716-34.41,9.564-53.311h43.51
			C399.704,142.186,390.706,164.523,376.706,182.848z M338.667,168c-8.658,0-15.789,6.477-16.849,14.848H282.3v-36.17
			c14.985-2.043,26.86-13.842,29.012-28.792h39.229c-0.846,18.177-4.006,35.255-8.973,50.38
			C340.623,168.102,339.658,168,338.667,168z M274.7,146.863v35.984h-53.655c-8.191-18.325-13.455-40.662-14.586-64.962h37.562
			C246.253,133.386,258.936,145.499,274.7,146.863z M321.666,25.553h-39.367v-40.916c17.68,1.573,33.697,14.06,45.788,33.581
			C325.356,20.053,323.143,22.587,321.666,25.553z M274.7,25.553h-49.972c12.45-23.698,30.167-39.154,49.972-40.916V25.553z
			 M198.872,117.886c1.056,23.535,5.869,45.832,13.959,64.962h-32.537c-14-18.325-22.998-40.662-24.932-64.962L198.872,117.886
			L198.872,117.886z M274.7,190.447v40.915c-19.804-1.762-37.521-17.218-49.971-40.915H274.7z M282.299,190.447h40.275
			c1.027,3.034,2.874,5.689,5.294,7.682c-12.065,19.32-27.995,31.669-45.569,33.233V190.447z M402.005,110.286h-43.667
			c0.008-0.763,0.033-1.521,0.033-2.286c0-20.743-2.918-40.747-8.395-58.759c4.658-3.463,7.69-8.991,7.69-15.241
			c0-0.286-0.03-0.564-0.043-0.847h19.083c15.879,20.785,25.327,46.731,25.327,74.847
			C402.034,108.764,402.019,109.525,402.005,110.286z M370.411,25.553h-14.744c-3.111-6.249-9.545-10.553-17-10.553
			c-1.206,0-2.382,0.125-3.526,0.34c-6.62-10.922-14.217-19.682-22.485-26.067C335.209-4.229,355.131,8.537,370.411,25.553z
			 M244.343-10.727c-8.439,6.517-16.182,15.501-22.897,26.74c-1.828,3.06-3.553,6.244-5.174,9.541H186.59
			C201.869,8.537,221.79-4.229,244.343-10.727z M180.294,33.153h32.537c-9.217,21.793-14.203,47.691-14.203,74.847
			c0,0.765,0.026,1.523,0.033,2.286h-43.666c-0.014-0.761-0.029-1.522-0.029-2.286C154.966,79.884,164.415,53.937,180.294,33.153z
			 M186.59,190.447h29.682c1.621,3.296,3.346,6.481,5.174,9.54c6.715,11.239,14.458,20.223,22.897,26.739
			C221.791,220.229,201.87,207.463,186.59,190.447z M328.4,257.958v79.4H229v-79.4h3.4H325H328.4z M317.4,250.358H240v-16.996
			c12.179,3.748,25.107,5.771,38.5,5.771c13.539,0,26.605-2.063,38.9-5.89V250.358z M312.656,226.727
			c8.056-6.221,15.474-14.697,21.973-25.23c1.297,0.316,2.644,0.503,4.038,0.503c7.481,0,13.82-4.839,16.092-11.553h15.651
			C355.13,207.463,335.209,220.229,312.656,226.727z"/>
		
			<linearGradient id="SVGID_61_" gradientUnits="userSpaceOnUse" x1="278.7" y1="285" x2="278.7" y2="-86.0121" gradientTransform="matrix(1 0 0 -1 0 360)">
			<stop  offset="0" style="stop-color:#14B1E7"/>
			<stop  offset="1" style="stop-color:#1C75BC"/>
		</linearGradient>
		<polygon style="fill:url(#SVGID_61_);" points="279.117,291.158 259.7,307.158 297.7,307.158 		"/>
	</g>
</g>
<g id="Product_Council" style="display:none;">
	<g style="display:inline;">
		
			<linearGradient id="SVGID_62_" gradientUnits="userSpaceOnUse" x1="274.7266" y1="296" x2="274.7266" y2="-64.1155" gradientTransform="matrix(1 0 0 -1 0 360)">
			<stop  offset="0" style="stop-color:#14B1E7"/>
			<stop  offset="1" style="stop-color:#1C75BC"/>
		</linearGradient>
		<path style="fill:url(#SVGID_62_);" d="M397.674,54.982c-0.004-0.197-0.029-0.389-0.065-0.579c-0.01-0.051-0.023-0.1-0.034-0.151
			c-0.038-0.16-0.086-0.317-0.146-0.469c-0.017-0.043-0.03-0.086-0.048-0.128c-0.079-0.181-0.173-0.354-0.281-0.518
			c-0.024-0.036-0.051-0.068-0.076-0.103c-0.094-0.132-0.198-0.257-0.31-0.376c-0.034-0.036-0.068-0.073-0.104-0.107
			c-0.143-0.138-0.295-0.268-0.461-0.38c-0.012-0.009-0.026-0.015-0.039-0.023c-0.117-0.077-0.238-0.151-0.366-0.214L276.336-7.254
			c-0.972-0.481-2.11-0.481-3.082,0L153.71,51.934c-0.129,0.064-0.25,0.137-0.368,0.215c-0.012,0.008-0.026,0.014-0.038,0.022
			c-0.165,0.112-0.315,0.24-0.456,0.376c-0.038,0.037-0.074,0.075-0.11,0.113c-0.112,0.118-0.215,0.242-0.309,0.374
			c-0.024,0.034-0.051,0.064-0.073,0.099c-0.107,0.162-0.199,0.334-0.278,0.512c-0.021,0.047-0.037,0.096-0.056,0.145
			c-0.058,0.15-0.106,0.303-0.143,0.461c-0.011,0.048-0.025,0.094-0.034,0.142c-0.034,0.179-0.059,0.362-0.065,0.548
			c-0.001,0.023,0.003,0.045,0.003,0.068c0,0.012-0.004,0.024-0.004,0.036v47.449c0,0.028,0.007,0.053,0.008,0.081
			c0.004,0.179,0.022,0.355,0.053,0.529c0.008,0.047,0.015,0.095,0.025,0.142c0.043,0.195,0.101,0.384,0.176,0.567
			c0.016,0.039,0.037,0.075,0.054,0.114c0.067,0.148,0.145,0.29,0.232,0.428c0.028,0.044,0.056,0.089,0.086,0.132
			c0.113,0.162,0.237,0.316,0.377,0.457c0.01,0.01,0.021,0.018,0.031,0.028c0.13,0.128,0.274,0.243,0.425,0.351
			c0.047,0.033,0.094,0.064,0.142,0.095c0.047,0.03,0.089,0.064,0.138,0.092l116.196,66.475c0.533,0.306,1.128,0.458,1.724,0.458
			c0.568,0,1.138-0.14,1.653-0.419l122.757-66.475c0.069-0.037,0.131-0.083,0.196-0.125c0.045-0.029,0.091-0.055,0.135-0.086
			c0.164-0.115,0.319-0.24,0.459-0.379c0.016-0.016,0.029-0.034,0.045-0.05c0.124-0.128,0.236-0.266,0.339-0.411
			c0.03-0.043,0.059-0.085,0.088-0.129c0.1-0.155,0.189-0.316,0.263-0.485c0.007-0.016,0.016-0.031,0.023-0.047
			c0.078-0.185,0.134-0.379,0.179-0.576c0.011-0.051,0.02-0.102,0.029-0.153c0.032-0.18,0.052-0.362,0.055-0.548
			c0-0.022,0.006-0.042,0.006-0.064V55.047c0-0.007-0.002-0.014-0.002-0.021C397.672,55.01,397.675,54.996,397.674,54.982z
			 M274.793-0.269l111.867,55.45l-38.276,20.727l-72.048-35.713c-0.972-0.481-2.11-0.481-3.082,0l-73.425,36.354l-37.201-21.282
			L274.793-0.269z M340.912,79.954l-69.42,37.591l-64.403-36.844l67.704-33.521L340.912,79.954z M158.721,61.031l33.612,19.229
			l-33.612,16.642V61.031z M271.492,164.995l-108.864-62.28l36.965-18.302l70.129,40.12c0.533,0.306,1.128,0.458,1.724,0.458
			c0.568,0,1.138-0.14,1.653-0.419l75.426-40.844l38.135,18.903L271.492,164.995z M390.731,96.899l-34.734-17.217l34.734-18.809
			V96.899z"/>
		
			<linearGradient id="SVGID_63_" gradientUnits="userSpaceOnUse" x1="274.726" y1="296" x2="274.726" y2="-64.1166" gradientTransform="matrix(1 0 0 -1 0 360)">
			<stop  offset="0" style="stop-color:#14B1E7"/>
			<stop  offset="1" style="stop-color:#1C75BC"/>
		</linearGradient>
		<path style="fill:url(#SVGID_63_);" d="M397.61,263.874c-0.01-0.051-0.023-0.1-0.034-0.15c-0.038-0.161-0.086-0.318-0.146-0.471
			c-0.016-0.042-0.03-0.085-0.047-0.126c-0.079-0.182-0.174-0.355-0.282-0.52c-0.023-0.035-0.049-0.066-0.073-0.1
			c-0.095-0.134-0.2-0.26-0.313-0.38c-0.034-0.035-0.066-0.071-0.101-0.105c-0.143-0.138-0.295-0.268-0.462-0.381
			c-0.013-0.009-0.028-0.016-0.042-0.025c-0.117-0.077-0.236-0.149-0.363-0.212l-119.409-59.188
			c-0.972-0.482-2.11-0.481-3.082-0.001L153.71,261.404c-0.129,0.064-0.25,0.137-0.369,0.215c-0.012,0.008-0.026,0.014-0.038,0.022
			c-0.165,0.112-0.314,0.24-0.456,0.376c-0.038,0.037-0.074,0.075-0.11,0.114c-0.112,0.118-0.215,0.242-0.308,0.374
			c-0.024,0.034-0.051,0.065-0.073,0.099c-0.107,0.162-0.199,0.333-0.278,0.511c-0.021,0.048-0.037,0.097-0.056,0.145
			c-0.058,0.149-0.106,0.303-0.143,0.46c-0.011,0.048-0.025,0.094-0.034,0.143c-0.034,0.179-0.059,0.362-0.065,0.548
			c-0.001,0.023,0.003,0.045,0.003,0.068c0,0.012-0.004,0.023-0.004,0.036v47.449c0,0.028,0.007,0.053,0.008,0.081
			c0.004,0.179,0.022,0.355,0.053,0.529c0.008,0.047,0.015,0.095,0.025,0.142c0.043,0.195,0.101,0.384,0.176,0.567
			c0.016,0.039,0.037,0.075,0.054,0.114c0.067,0.148,0.145,0.29,0.232,0.428c0.028,0.044,0.056,0.089,0.086,0.132
			c0.113,0.162,0.237,0.316,0.377,0.457c0.01,0.01,0.021,0.018,0.031,0.028c0.13,0.128,0.274,0.243,0.425,0.351
			c0.047,0.033,0.094,0.064,0.142,0.095c0.047,0.03,0.089,0.064,0.138,0.092l116.196,66.475c0.533,0.306,1.128,0.458,1.724,0.458
			c0.568,0,1.138-0.14,1.653-0.419l122.757-66.475c0.069-0.037,0.131-0.083,0.196-0.125c0.045-0.029,0.091-0.055,0.135-0.086
			c0.164-0.115,0.319-0.24,0.459-0.379c0.016-0.016,0.029-0.034,0.045-0.05c0.124-0.128,0.236-0.266,0.339-0.411
			c0.03-0.043,0.059-0.085,0.088-0.129c0.1-0.155,0.189-0.316,0.263-0.485c0.007-0.016,0.016-0.031,0.023-0.047
			c0.078-0.185,0.134-0.379,0.179-0.576c0.011-0.051,0.02-0.102,0.029-0.153c0.032-0.18,0.052-0.362,0.055-0.548
			c0-0.022,0.006-0.042,0.006-0.064v-47.449c0-0.007-0.002-0.014-0.002-0.021c0-0.014,0.002-0.027,0.002-0.041
			C397.671,264.256,397.645,264.064,397.61,263.874z M274.793,209.203l111.867,55.449l-38.276,20.727l-72.048-35.712
			c-0.972-0.481-2.11-0.482-3.082-0.001l-73.424,36.353l-37.202-21.283L274.793,209.203z M340.911,289.425l-69.42,37.591
			l-64.403-36.844l67.703-33.52L340.911,289.425z M158.721,270.501l33.612,19.229l-33.612,16.642V270.501z M271.492,374.466
			l-108.864-62.28l36.966-18.302l70.129,40.12c0.533,0.306,1.128,0.458,1.724,0.458c0.568,0,1.138-0.14,1.653-0.419l75.425-40.844
			l38.135,18.902L271.492,374.466z M390.731,306.369l-34.734-17.217l34.734-18.809V306.369z"/>
		
			<linearGradient id="SVGID_64_" gradientUnits="userSpaceOnUse" x1="393.9285" y1="296" x2="393.9285" y2="-64" gradientTransform="matrix(1 0 0 -1 0 360)">
			<stop  offset="0" style="stop-color:#14B1E7"/>
			<stop  offset="1" style="stop-color:#1C75BC"/>
		</linearGradient>
		<rect x="391.614" y="133.74" style="fill:url(#SVGID_64_);" width="4.629" height="9.259"/>
		
			<linearGradient id="SVGID_65_" gradientUnits="userSpaceOnUse" x1="393.9285" y1="296" x2="393.9285" y2="-64" gradientTransform="matrix(1 0 0 -1 0 360)">
			<stop  offset="0" style="stop-color:#14B1E7"/>
			<stop  offset="1" style="stop-color:#1C75BC"/>
		</linearGradient>
		<rect x="391.614" y="196.234" style="fill:url(#SVGID_65_);" width="4.629" height="9.259"/>
		
			<linearGradient id="SVGID_66_" gradientUnits="userSpaceOnUse" x1="393.9285" y1="296" x2="393.9285" y2="-64" gradientTransform="matrix(1 0 0 -1 0 360)">
			<stop  offset="0" style="stop-color:#14B1E7"/>
			<stop  offset="1" style="stop-color:#1C75BC"/>
		</linearGradient>
		<rect x="391.614" y="175.403" style="fill:url(#SVGID_66_);" width="4.629" height="9.259"/>
		
			<linearGradient id="SVGID_67_" gradientUnits="userSpaceOnUse" x1="393.9285" y1="296" x2="393.9285" y2="-64" gradientTransform="matrix(1 0 0 -1 0 360)">
			<stop  offset="0" style="stop-color:#14B1E7"/>
			<stop  offset="1" style="stop-color:#1C75BC"/>
		</linearGradient>
		<rect x="391.614" y="112.909" style="fill:url(#SVGID_67_);" width="4.629" height="9.259"/>
		
			<linearGradient id="SVGID_68_" gradientUnits="userSpaceOnUse" x1="393.9285" y1="296" x2="393.9285" y2="-64" gradientTransform="matrix(1 0 0 -1 0 360)">
			<stop  offset="0" style="stop-color:#14B1E7"/>
			<stop  offset="1" style="stop-color:#1C75BC"/>
		</linearGradient>
		<rect x="391.614" y="154.572" style="fill:url(#SVGID_68_);" width="4.629" height="9.258"/>
		
			<linearGradient id="SVGID_69_" gradientUnits="userSpaceOnUse" x1="393.9285" y1="296" x2="393.9285" y2="-64" gradientTransform="matrix(1 0 0 -1 0 360)">
			<stop  offset="0" style="stop-color:#14B1E7"/>
			<stop  offset="1" style="stop-color:#1C75BC"/>
		</linearGradient>
		<rect x="391.614" y="217.066" style="fill:url(#SVGID_69_);" width="4.629" height="9.258"/>
		
			<linearGradient id="SVGID_70_" gradientUnits="userSpaceOnUse" x1="393.9285" y1="296" x2="393.9285" y2="-64" gradientTransform="matrix(1 0 0 -1 0 360)">
			<stop  offset="0" style="stop-color:#14B1E7"/>
			<stop  offset="1" style="stop-color:#1C75BC"/>
		</linearGradient>
		<rect x="391.614" y="237.897" style="fill:url(#SVGID_70_);" width="4.629" height="9.258"/>
		
			<linearGradient id="SVGID_71_" gradientUnits="userSpaceOnUse" x1="154.3675" y1="296" x2="154.3675" y2="-64" gradientTransform="matrix(1 0 0 -1 0 360)">
			<stop  offset="0" style="stop-color:#14B1E7"/>
			<stop  offset="1" style="stop-color:#1C75BC"/>
		</linearGradient>
		<rect x="152.053" y="131.426" style="fill:url(#SVGID_71_);" width="4.629" height="9.259"/>
		
			<linearGradient id="SVGID_72_" gradientUnits="userSpaceOnUse" x1="154.3675" y1="296" x2="154.3675" y2="-64" gradientTransform="matrix(1 0 0 -1 0 360)">
			<stop  offset="0" style="stop-color:#14B1E7"/>
			<stop  offset="1" style="stop-color:#1C75BC"/>
		</linearGradient>
		<rect x="152.053" y="168.459" style="fill:url(#SVGID_72_);" width="4.629" height="9.259"/>
		
			<linearGradient id="SVGID_73_" gradientUnits="userSpaceOnUse" x1="154.3675" y1="296" x2="154.3675" y2="-64" gradientTransform="matrix(1 0 0 -1 0 360)">
			<stop  offset="0" style="stop-color:#14B1E7"/>
			<stop  offset="1" style="stop-color:#1C75BC"/>
		</linearGradient>
		<rect x="152.053" y="186.977" style="fill:url(#SVGID_73_);" width="4.629" height="9.258"/>
		
			<linearGradient id="SVGID_74_" gradientUnits="userSpaceOnUse" x1="154.3675" y1="296" x2="154.3675" y2="-64" gradientTransform="matrix(1 0 0 -1 0 360)">
			<stop  offset="0" style="stop-color:#14B1E7"/>
			<stop  offset="1" style="stop-color:#1C75BC"/>
		</linearGradient>
		<rect x="152.053" y="205.493" style="fill:url(#SVGID_74_);" width="4.629" height="9.258"/>
		
			<linearGradient id="SVGID_75_" gradientUnits="userSpaceOnUse" x1="154.3675" y1="296" x2="154.3675" y2="-64" gradientTransform="matrix(1 0 0 -1 0 360)">
			<stop  offset="0" style="stop-color:#14B1E7"/>
			<stop  offset="1" style="stop-color:#1C75BC"/>
		</linearGradient>
		<rect x="152.053" y="224.01" style="fill:url(#SVGID_75_);" width="4.629" height="9.259"/>
		
			<linearGradient id="SVGID_76_" gradientUnits="userSpaceOnUse" x1="154.3675" y1="296" x2="154.3675" y2="-64" gradientTransform="matrix(1 0 0 -1 0 360)">
			<stop  offset="0" style="stop-color:#14B1E7"/>
			<stop  offset="1" style="stop-color:#1C75BC"/>
		</linearGradient>
		<rect x="152.053" y="242.526" style="fill:url(#SVGID_76_);" width="4.629" height="9.259"/>
		
			<linearGradient id="SVGID_77_" gradientUnits="userSpaceOnUse" x1="154.3675" y1="296" x2="154.3675" y2="-64" gradientTransform="matrix(1 0 0 -1 0 360)">
			<stop  offset="0" style="stop-color:#14B1E7"/>
			<stop  offset="1" style="stop-color:#1C75BC"/>
		</linearGradient>
		<rect x="152.053" y="149.942" style="fill:url(#SVGID_77_);" width="4.629" height="9.259"/>
		
			<linearGradient id="SVGID_78_" gradientUnits="userSpaceOnUse" x1="154.3675" y1="296" x2="154.3675" y2="-64" gradientTransform="matrix(1 0 0 -1 0 360)">
			<stop  offset="0" style="stop-color:#14B1E7"/>
			<stop  offset="1" style="stop-color:#1C75BC"/>
		</linearGradient>
		<rect x="152.053" y="112.909" style="fill:url(#SVGID_78_);" width="4.629" height="9.259"/>
	</g>
</g>
<g id="Sigs" style="display:none;">
	<g style="display:inline;">
		
			<linearGradient id="SVGID_79_" gradientUnits="userSpaceOnUse" x1="254.33" y1="388" x2="254.33" y2="-15" gradientTransform="matrix(1 0 0 -1 0 360)">
			<stop  offset="0" style="stop-color:#14B1E7"/>
			<stop  offset="1" style="stop-color:#1C75BC"/>
		</linearGradient>
		<path style="fill:url(#SVGID_79_);" d="M339.611,71.834c-0.061,0-0.117-0.001-0.177-0.001c-18.178,0-33.017,14.742-33.112,32.941
			c-0.054,10.129,4.474,19.229,11.63,25.346l-22.909,46.02c-3.146-1.015-6.496-1.575-9.974-1.593c-0.061,0-0.117-0.001-0.177-0.001
			c-10.26,0-19.454,4.698-25.536,12.061l-60.16-27.497c1.987-4.22,3.116-8.921,3.143-13.884c0.047-8.845-3.354-17.18-9.576-23.467
			c-6.221-6.287-14.519-9.775-23.364-9.822c-0.06,0-0.119-0.001-0.18-0.001c-8.778,0-17.042,3.397-23.287,9.576
			c-6.288,6.222-9.776,14.52-9.823,23.365c-0.097,18.26,14.681,33.193,32.94,33.289c0.061,0,0.117,0.001,0.177,0.001
			c7.549,0,14.517-2.548,20.097-6.824l63.297,28.931c-0.531,2.323-0.827,4.734-0.84,7.214c-0.047,8.845,3.354,17.18,9.576,23.467
			c6.221,6.287,14.519,9.775,23.364,9.822c0.061,0,0.117,0.001,0.177,0.001c18.178,0,33.017-14.742,33.112-32.941
			c0.049-9.288-3.755-17.709-9.903-23.761l23.388-46.983c2.492,0.616,5.091,0.957,7.768,0.971c0.061,0,0.117,0.001,0.177,0.001
			c18.178,0,33.017-14.742,33.112-32.941c0.047-8.846-3.354-17.18-9.575-23.467S348.457,71.881,339.611,71.834z M169.129,162.937
			c-9.861-0.052-17.842-8.117-17.79-17.979c0.052-9.829,8.065-17.79,17.884-17.79c0.031,0,0.063,0,0.096,0
			c4.777,0.025,9.259,1.909,12.618,5.305c3.36,3.396,5.197,7.896,5.172,12.674c-0.025,4.776-1.909,9.258-5.306,12.618
			c-3.373,3.338-7.836,5.172-12.577,5.172C169.194,162.937,169.161,162.937,169.129,162.937z M284.896,225.547
			c-0.031,0-0.063,0-0.096,0c-4.777-0.025-9.259-1.909-12.618-5.305c-3.36-3.396-5.197-7.896-5.172-12.674s1.909-9.259,5.305-12.618
			c3.373-3.338,7.836-5.172,12.577-5.172c0.031,0,0.064,0,0.097,0c9.861,0.052,17.842,8.117,17.79,17.979
			C302.727,217.586,294.715,225.547,284.896,225.547z M352.016,117.661c-3.373,3.338-7.836,5.172-12.577,5.172
			c-0.031,0-0.064,0-0.097,0c-2.387-0.013-4.66-0.503-6.74-1.367c-0.422-0.34-0.884-0.644-1.39-0.896
			c-0.411-0.205-0.832-0.361-1.258-0.486c-5.065-3.185-8.436-8.82-8.403-15.23c0.052-9.829,8.064-17.79,17.883-17.79
			c0.031,0,0.063,0,0.096,0c4.777,0.025,9.259,1.909,12.619,5.305c3.359,3.396,5.196,7.896,5.171,12.674
			S355.412,114.302,352.016,117.661z"/>
		
			<linearGradient id="SVGID_80_" gradientUnits="userSpaceOnUse" x1="263.667" y1="388" x2="263.667" y2="-15" gradientTransform="matrix(1 0 0 -1 0 360)">
			<stop  offset="0" style="stop-color:#14B1E7"/>
			<stop  offset="1" style="stop-color:#1C75BC"/>
		</linearGradient>
		<path style="fill:url(#SVGID_80_);" d="M471.369,158.608c0-38.258-22.017-74.006-61.995-100.658
			c-39.028-26.019-90.775-40.348-145.707-40.348S156.988,31.931,117.96,57.95c-39.979,26.652-61.995,62.4-61.995,100.658
			c0,37.22,20.899,72.13,58.914,98.546c4.201,14.88,3.855,39.233-13.619,51.635c-2.516,1.785-3.706,4.911-3.015,7.918
			c0.691,3.006,3.128,5.298,6.17,5.805c0.609,0.102,15.109,2.442,32.189-1.135c20.905-4.381,36.709-15.678,46.089-32.838
			c6.124,1.753,12.376,3.31,18.679,4.647c15.714,30.357,8.817,85.261,8.744,85.827c-0.352,2.689,0.754,5.362,2.902,7.019
			c1.354,1.043,2.993,1.583,4.649,1.583c0.972,0,1.948-0.186,2.877-0.564c22.998-9.387,40.251-25.101,51.279-46.703
			c7.595-14.876,10.881-29.894,12.575-41.425c16.807-1.125,33.273-3.618,49.105-7.436c16.524,25.407,15.628,54.187,15.617,54.475
			c-0.126,2.946,1.46,5.7,4.071,7.069c2.612,1.37,5.779,1.109,8.13-0.67c44.725-33.814,52.924-69.654,51.151-95.212
			C450.496,230.734,471.369,195.887,471.369,158.608z M400.272,247.02c-2.407,1.589-3.71,4.402-3.364,7.266
			c3.307,27.434-8.244,53.701-33.514,76.624c-1.795-13.664-6.798-34.104-20.524-52.624c-1.852-2.498-5.038-3.618-8.046-2.833
			c-18.355,4.804-37.702,7.703-57.504,8.616c-3.726,0.172-6.778,3.017-7.213,6.721c-1.655,14.121-6.398,54.568-43.663,76.422
			c1.253-20.706,1.25-59.924-13.589-84.693c-1.104-1.845-2.938-3.136-5.046-3.556c-9.126-1.817-18.162-4.12-26.859-6.845
			c-0.756-0.236-1.521-0.35-2.277-0.35c-2.979,0-5.781,1.76-7.005,4.633c-10.491,24.626-33.3,30.59-48.859,31.612
			c4.089-6.203,6.937-13.455,8.414-21.546c2.165-11.853,1.202-25.171-2.642-36.539c-0.534-1.58-1.572-2.941-2.956-3.874
			c-35.1-23.671-54.43-54.726-54.43-87.445c0-69.353,86.343-125.776,192.472-125.776s192.472,56.423,192.472,125.776
			C456.138,191.829,436.298,223.228,400.272,247.02z"/>
	</g>
</g>
<g id="Business" style="display:none;">
	
		<linearGradient id="SVGID_81_" gradientUnits="userSpaceOnUse" x1="332.8613" y1="337.206" x2="231.8613" y2="10.2059" gradientTransform="matrix(1 0 0 -1 0 360)">
		<stop  offset="0" style="stop-color:#14B1E7"/>
		<stop  offset="1" style="stop-color:#1C75BC"/>
	</linearGradient>
	<path style="display:inline;fill:url(#SVGID_81_);" d="M449.513,212.356V14.149h-97.6v103.908
		c-7.318-4.351-15.155-7.586-23.409-9.666v-52.19h-97.6v92.266c-12.286-6.73-26.109-10.28-40.223-10.28
		c-21.837,0-42.509,8.354-58.207,23.525c-14.79,14.294-23.694,33.196-25.308,53.559c-27.992,1.568-50.285,24.838-50.285,53.216
		c0,27.829,21.655,50.91,49,53.117v0.18h4.14c0.053,0.002,0.105,0.003,0.16,0.003l283.5-0.003l3.8-0.066v-0.23
		c36.173-3.185,64-33.259,64-70.007C461.482,237.163,457.096,223.645,449.513,212.356z M359.513,21.749h82.4v180.395
		c-5.555-5.405-11.861-9.836-18.679-13.223c-5.554-2.859-11.549-5.014-17.89-6.312c-4.634-0.948-9.398-1.429-14.163-1.429
		l-0.153,0.003l0.001,0.032c-0.273-0.003-0.543-0.02-0.816-0.02c-10.598,0-21.094,2.284-30.7,6.646L359.513,21.749L359.513,21.749z
		 M238.505,63.801h82.4v146.025c-9.622-3.734-19.755-5.624-30.2-5.624c-30.349,0-57.852,16.085-72.775,42.263
		c-7.542-4.852-15.731-8.42-24.425-10.64v-60.684h45L238.505,63.801L238.505,63.801z M393.542,314.12l-1.155,0.064H110.684
		l-0.964-0.01c-24.944-0.248-45.238-20.743-45.238-45.688c0-25.199,20.501-45.7,45.7-45.7l4.236,0.052l0.137-3.697
		c0.726-19.751,8.965-38.205,23.202-51.964c14.272-13.794,33.068-21.391,52.925-21.391c13.974,0,27.638,3.815,39.515,11.032
		l0.708-1.165v11.888h-45v74.354l2.994,0.65c10.197,2.213,19.674,6.426,28.165,12.519l3.605,2.588l2.002-3.961
		c13.058-25.838,39.127-41.89,68.033-41.89c11.299,0,22.194,2.431,32.382,7.225l5.418,2.549V116.278
		c8.329,2.312,16.173,5.929,23.409,10.8v73.445l5.663-3.187c9.932-5.587,21.218-8.541,32.637-8.541
		c10.307,0,20.245,2.332,29.2,6.697c20.658,10.465,34.469,31.971,34.469,55.988C453.882,285.353,427.378,312.867,393.542,314.12z"/>
</g>
<g id="developers" style="display:none;">
	<g style="display:inline;">
		
			<linearGradient id="SVGID_82_" gradientUnits="userSpaceOnUse" x1="271.6658" y1="304" x2="271.6658" y2="94" gradientTransform="matrix(1 0 0 -1 0 360)">
			<stop  offset="0" style="stop-color:#14B1E7"/>
			<stop  offset="1" style="stop-color:#1C75BC"/>
		</linearGradient>
		<path style="fill:url(#SVGID_82_);" d="M491.896,215.516c-0.209-0.273-20.527-25.941-56.383-11.355V72.876l-4.265-3.525
			l-0.007-0.473L258.066,41.269l-1.259-0.004L81.961,68.037l-0.026,1.311l-4.268,3.528v131.145
			c-6.934-3.493-14.75-5.466-23.002-5.466c-2.251,0-4.075,1.824-4.075,4.075s1.824,4.075,4.075,4.075
			c22.803,0,41.703,17.816,43.027,40.561l0.606,10.41l6.613-8.063c0.653-0.798,1.999-0.36,7.203,2.357
			c6.989,3.648,17.554,9.163,32.378,6.107c41.991-8.644,57.132,5.574,62.445,19.021l2.454,6.211l4.401-5.022
			c12.309-14.05,28.396-23.946,46.073-28.705h0.798v-0.207c7.6-1.974,15.484-3.008,23.485-3.008
			c23.969,0,46.764,9.062,64.188,25.516l3.471,3.277l2.692-3.942c12.46-18.246,33.065-29.14,55.119-29.14
			c15.963,0,31.406,5.727,43.487,16.125c1.706,1.468,4.278,1.275,5.747-0.431c1.468-1.706,1.275-4.278-0.431-5.747
			c-6.818-5.868-14.59-10.407-22.91-13.474v-25.479c31.896-14.888,49.172,6.451,49.932,7.424c0.802,1.036,2.007,1.58,3.225,1.58
			c0.867,0,1.741-0.275,2.481-0.846C492.935,219.857,493.269,217.299,491.896,215.516z M257.413,49.417l149.479,23.832
			l-51.759,9.811L210.82,56.552L257.413,49.417z M189.477,59.819l-0.195,1.062l143.65,26.386l-75.916,14.39L106.45,72.531
			L189.477,59.819z M211.803,268.466c-10.883-18.824-35.065-25.348-68.953-18.37c-11.992,2.467-20.292-1.867-26.964-5.351
			c-3.461-1.806-7.228-3.738-10.717-3.695c-2.238-12.992-9.357-24.257-19.353-31.92V77.806l166.697,31.929v133.54
			C237.254,248.276,223.264,256.859,211.803,268.466z M409.62,233.927c-23.195,0-44.961,10.735-59.111,28.938
			c-18.456-15.928-41.844-24.648-66.358-24.648c-7.982,0-15.857,0.946-23.485,2.76V109.734l166.698-31.929v158.272
			C421.594,234.67,415.642,233.927,409.62,233.927z"/>
		
			<linearGradient id="SVGID_83_" gradientUnits="userSpaceOnUse" x1="389.4238" y1="304" x2="389.4238" y2="94" gradientTransform="matrix(1 0 0 -1 0 360)">
			<stop  offset="0" style="stop-color:#14B1E7"/>
			<stop  offset="1" style="stop-color:#1C75BC"/>
		</linearGradient>
		<path style="fill:url(#SVGID_83_);" d="M375.875,130.95c-1.673-1.502-4.252-1.362-5.754,0.314
			c-1.502,1.676-1.361,4.252,0.314,5.754l28.305,25.375l-24.546,32.399c-1.359,1.794-1.007,4.35,0.787,5.709
			c0.736,0.558,1.601,0.827,2.458,0.827c1.231,0,2.449-0.557,3.251-1.614l29.077-38.382L375.875,130.95z"/>
		
			<linearGradient id="SVGID_84_" gradientUnits="userSpaceOnUse" x1="317.0833" y1="304" x2="317.0833" y2="94" gradientTransform="matrix(1 0 0 -1 0 360)">
			<stop  offset="0" style="stop-color:#14B1E7"/>
			<stop  offset="1" style="stop-color:#1C75BC"/>
		</linearGradient>
		<path style="fill:url(#SVGID_84_);" d="M338.936,203.5l-34.004-22.345l26.508-37.304c1.304-1.835,0.874-4.379-0.961-5.682
			c-1.835-1.307-4.38-0.873-5.682,0.961l-31.404,44.194l41.068,26.985c0.689,0.453,1.466,0.67,2.233,0.67
			c1.326,0,2.627-0.646,3.409-1.838C341.34,207.263,340.817,204.735,338.936,203.5z"/>
	</g>
</g>
<g id="operators" style="display:none;">
	<g style="display:inline;">
		
			<linearGradient id="SVGID_85_" gradientUnits="userSpaceOnUse" x1="162.752" y1="365" x2="162.752" y2="75" gradientTransform="matrix(1 0 0 -1 0 360)">
			<stop  offset="0" style="stop-color:#14B1E7"/>
			<stop  offset="1" style="stop-color:#1C75BC"/>
		</linearGradient>
		<path style="fill:url(#SVGID_85_);" d="M174.405,262.391c-1.797-1.947-3.563-3.983-5.247-6.051l-18.059,14.713
			c1.988,2.439,4.072,4.842,6.196,7.14L174.405,262.391z"/>
		
			<linearGradient id="SVGID_86_" gradientUnits="userSpaceOnUse" x1="142.446" y1="365" x2="142.446" y2="75" gradientTransform="matrix(1 0 0 -1 0 360)">
			<stop  offset="0" style="stop-color:#14B1E7"/>
			<stop  offset="1" style="stop-color:#1C75BC"/>
		</linearGradient>
		<path style="fill:url(#SVGID_86_);" d="M154.833,117.657l-20.68-10.717c-1.451,2.8-2.828,5.678-4.094,8.554l21.319,9.382
			C152.445,122.45,153.608,120.021,154.833,117.657z"/>
		
			<linearGradient id="SVGID_87_" gradientUnits="userSpaceOnUse" x1="273.0955" y1="365" x2="273.0955" y2="75" gradientTransform="matrix(1 0 0 -1 0 360)">
			<stop  offset="0" style="stop-color:#14B1E7"/>
			<stop  offset="1" style="stop-color:#1C75BC"/>
		</linearGradient>
		<path style="fill:url(#SVGID_87_);" d="M276.316,49.252l1.563-23.24c-3.14-0.212-6.317-0.329-9.452-0.343l-0.115,23.292
			l1.061,0.01C271.675,49.002,274.011,49.097,276.316,49.252z"/>
		
			<linearGradient id="SVGID_88_" gradientUnits="userSpaceOnUse" x1="130.2365" y1="365" x2="130.2365" y2="75" gradientTransform="matrix(1 0 0 -1 0 360)">
			<stop  offset="0" style="stop-color:#14B1E7"/>
			<stop  offset="1" style="stop-color:#1C75BC"/>
		</linearGradient>
		<path style="fill:url(#SVGID_88_);" d="M119.377,200.915l22.977-3.824c-0.436-2.616-0.793-5.282-1.062-7.923l-23.173,2.365
			C118.439,194.66,118.861,197.817,119.377,200.915z"/>
		
			<linearGradient id="SVGID_89_" gradientUnits="userSpaceOnUse" x1="195.6135" y1="365" x2="195.6135" y2="75" gradientTransform="matrix(1 0 0 -1 0 360)">
			<stop  offset="0" style="stop-color:#14B1E7"/>
			<stop  offset="1" style="stop-color:#1C75BC"/>
		</linearGradient>
		<path style="fill:url(#SVGID_89_);" d="M185.846,49.934l12.697,19.527c2.232-1.451,4.532-2.846,6.838-4.148l-11.45-20.284
			C191.204,46.569,188.484,48.219,185.846,49.934z"/>
		
			<linearGradient id="SVGID_90_" gradientUnits="userSpaceOnUse" x1="375.303" y1="365" x2="375.303" y2="75" gradientTransform="matrix(1 0 0 -1 0 360)">
			<stop  offset="0" style="stop-color:#14B1E7"/>
			<stop  offset="1" style="stop-color:#1C75BC"/>
		</linearGradient>
		<path style="fill:url(#SVGID_90_);" d="M363.534,259.756l17.534,15.333c2.072-2.369,4.092-4.829,6.004-7.311l-18.455-14.213
			C367,255.666,365.289,257.749,363.534,259.756z"/>
		
			<linearGradient id="SVGID_91_" gradientUnits="userSpaceOnUse" x1="405.7535" y1="365" x2="405.7535" y2="75" gradientTransform="matrix(1 0 0 -1 0 360)">
			<stop  offset="0" style="stop-color:#14B1E7"/>
			<stop  offset="1" style="stop-color:#1C75BC"/>
		</linearGradient>
		<path style="fill:url(#SVGID_91_);" d="M416.791,196.765c0.428-3.102,0.764-6.264,0.999-9.398l-23.227-1.744
			c-0.199,2.655-0.485,5.334-0.846,7.964L416.791,196.765z"/>
		
			<linearGradient id="SVGID_92_" gradientUnits="userSpaceOnUse" x1="397.04" y1="365" x2="397.04" y2="75" gradientTransform="matrix(1 0 0 -1 0 360)">
			<stop  offset="0" style="stop-color:#14B1E7"/>
			<stop  offset="1" style="stop-color:#1C75BC"/>
		</linearGradient>
		<path style="fill:url(#SVGID_92_);" d="M384.611,125.885c1.051,2.438,2.035,4.936,2.926,7.427l21.932-7.844
			c-1.057-2.953-2.223-5.914-3.467-8.802L384.611,125.885z"/>
		
			<linearGradient id="SVGID_93_" gradientUnits="userSpaceOnUse" x1="348.2345" y1="365" x2="348.2345" y2="75" gradientTransform="matrix(1 0 0 -1 0 360)">
			<stop  offset="0" style="stop-color:#14B1E7"/>
			<stop  offset="1" style="stop-color:#1C75BC"/>
		</linearGradient>
		<path style="fill:url(#SVGID_93_);" d="M350.805,50.628l-12.867,19.416c2.208,1.464,4.406,3.022,6.529,4.63l14.064-18.567
			C356.019,54.205,353.42,52.361,350.805,50.628z"/>
		
			<linearGradient id="SVGID_94_" gradientUnits="userSpaceOnUse" x1="268.453" y1="365" x2="268.453" y2="75" gradientTransform="matrix(1 0 0 -1 0 360)">
			<stop  offset="0" style="stop-color:#14B1E7"/>
			<stop  offset="1" style="stop-color:#1C75BC"/>
		</linearGradient>
		<path style="fill:url(#SVGID_94_);" d="M268.454-28.315c-112.927,0-204.8,91.873-204.8,204.8c0,55.222,21.659,107,60.988,145.797
			l2.745,2.708l34.356-35.857l-2.646-2.631c-29.563-29.387-45.844-68.458-45.844-110.017c0-85.577,69.623-155.2,155.2-155.2
			s155.2,69.623,155.2,155.2c0,41.559-16.281,80.63-45.845,110.017l-2.646,2.631l34.356,35.857l2.745-2.708
			c39.329-38.798,60.989-90.576,60.989-145.797C473.254,63.557,381.381-28.315,268.454-28.315z M409.646,314.137l-23.862-24.905
			c29.352-30.503,45.47-70.393,45.47-112.747c0-89.769-73.031-162.8-162.8-162.8s-162.8,73.031-162.8,162.8
			c0,42.354,16.117,82.245,45.469,112.747l-23.862,24.905c-36.146-37.038-56.007-85.769-56.007-137.652
			c0-108.736,88.464-197.2,197.2-197.2s197.2,88.464,197.2,197.2C465.654,228.367,445.793,277.098,409.646,314.137z"/>
		
			<linearGradient id="SVGID_95_" gradientUnits="userSpaceOnUse" x1="302.1675" y1="365" x2="302.1675" y2="75" gradientTransform="matrix(1 0 0 -1 0 360)">
			<stop  offset="0" style="stop-color:#14B1E7"/>
			<stop  offset="1" style="stop-color:#1C75BC"/>
		</linearGradient>
		<path style="fill:url(#SVGID_95_);" d="M295.159,190.777c1.608-3.602,2.509-7.585,2.509-11.777c0-15.99-13.01-29-29-29
			s-29,13.01-29,29s13.01,29,29,29c4.182,0,8.156-0.897,11.75-2.497L364.667,279L295.159,190.777z M268.668,204
			c-13.785,0-25-11.215-25-25s11.215-25,25-25s25,11.215,25,25c0,2.852-0.487,5.591-1.37,8.146l-13.08-16.601
			c-4.65-5.738-13.163-6.396-18.639-1.442c-5.782,5.231-5.623,14.36,0.337,19.387l16.122,14.064
			C274.419,203.487,271.602,204,268.668,204z"/>
	</g>
</g>
<g id="nyt_x5F_exporter_x5F_info" style="display:none;">
</g>
</svg>
