<svg version="1.1" viewBox="151.169418 68.42148 454.78125 254.653015" xmlns="http://www.w3.org/2000/svg"><!--Made with Vexlio.--><g id="layer0"><rect style="stroke:#000000;stroke-opacity:1;stroke-width:4;stroke-miterlimit:4;stroke-linecap:butt;stroke-linejoin:miter;fill:#f2f2f2;fill-opacity:1" transform="matrix(1 0 0 1 2.65271 -22.63849)" x="150.516708" y="93.05997" width="450.78125" height="250.653015" id="rect0" /><rect style="stroke:#000000;stroke-opacity:1;stroke-width:4;stroke-miterlimit:4;stroke-linecap:butt;stroke-linejoin:miter;fill:#ffffff;fill-opacity:1" transform="matrix(1 0 0 1 -28.04477 -28.11764)" x="195.3086" y="137.238754" width="200.140625" height="197.623856" id="rect1" /><text style="stroke:#ffffff;stroke-opacity:0;stroke-width:0;stroke-miterlimit:4;stroke-linecap:butt;stroke-linejoin:miter;fill:#000000;fill-opacity:1" transform="matrix(1 0 0 1 360.2017 93.5012)" font-size="18.4958534" font-family="Proxima Nova" id="text0">Org</text><text style="stroke:#ffffff;stroke-opacity:0;stroke-width:0;stroke-miterlimit:4;stroke-linecap:butt;stroke-linejoin:miter;fill:#000000;fill-opacity:1" transform="matrix(1 0 0 1 241.9565 131.3343)" font-size="18.4958534" font-family="Proxima Nova" id="text1">Space</text><rect style="stroke:#000000;stroke-opacity:1;stroke-width:2;stroke-miterlimit:4;stroke-linecap:butt;stroke-linejoin:miter;fill:#f2f2f2;fill-opacity:1" transform="matrix(1 0 0 1 -545.3204 -292.1986)" x="738.5526" y="436.262482" width="61.6477051" height="42.51053" id="rect2" /><text style="stroke:#ffffff;stroke-opacity:0;stroke-width:0;stroke-miterlimit:4;stroke-linecap:butt;stroke-linejoin:miter;fill:#000000;fill-opacity:1" transform="matrix(1 0 0 1 207.3981 170.8553)" font-size="18.4958534" font-family="Proxima Nova" id="text2">App</text><rect style="stroke:#000000;stroke-opacity:1;stroke-width:2;stroke-miterlimit:4;stroke-linecap:butt;stroke-linejoin:miter;fill:#f2f2f2;fill-opacity:1" transform="matrix(1 0 0 1 -560.9023 -221.657)" x="738.5526" y="423.755127" width="179.367859" height="42.5104675" id="rect3" /><text style="stroke:#ffffff;stroke-opacity:0;stroke-width:0;stroke-miterlimit:4;stroke-linecap:butt;stroke-linejoin:miter;fill:#000000;fill-opacity:1" transform="matrix(1 0 0 1 200.7699 228.8894)" font-size="18.4958534" font-family="Proxima Nova" id="text3">Service Instance</text><rect style="stroke:#000000;stroke-opacity:1;stroke-width:2;stroke-miterlimit:4;stroke-linecap:butt;stroke-linejoin:miter;fill:#f2f2f2;fill-opacity:1" transform="matrix(1 0 0 1 -560.9023 -171.1132)" x="738.5526" y="423.755127" width="179.367859" height="42.5104675" id="rect4" /><text style="stroke:#ffffff;stroke-opacity:0;stroke-width:0;stroke-miterlimit:4;stroke-linecap:butt;stroke-linejoin:miter;fill:#000000;fill-opacity:1" transform="matrix(1 0 0 1 200.7699 279.4333)" font-size="18.4958534" font-family="Proxima Nova" id="text4">Service Instance</text><rect style="stroke:#000000;stroke-opacity:1;stroke-width:2;stroke-miterlimit:4;stroke-linecap:butt;stroke-linejoin:miter;fill:#f2f2f2;fill-opacity:1" transform="matrix(1 0 0 1 -456.0503 -292.1986)" x="738.5526" y="436.262482" width="61.6477051" height="42.51053" id="rect5" /><text style="stroke:#ffffff;stroke-opacity:0;stroke-width:0;stroke-miterlimit:4;stroke-linecap:butt;stroke-linejoin:miter;fill:#000000;fill-opacity:1" transform="matrix(1 0 0 1 296.6682 170.8553)" font-size="18.4958534" font-family="Proxima Nova" id="text5">App</text><rect style="stroke:#000000;stroke-opacity:1;stroke-width:4;stroke-miterlimit:4;stroke-linecap:butt;stroke-linejoin:miter;fill:#ffffff;fill-opacity:1" transform="matrix(1 0 0 1 194.6538 -28.11765)" x="195.3086" y="137.238754" width="200.140625" height="197.623856" id="rect6" /><text style="stroke:#ffffff;stroke-opacity:0;stroke-width:0;stroke-miterlimit:4;stroke-linecap:butt;stroke-linejoin:miter;fill:#000000;fill-opacity:1" transform="matrix(1 0 0 1 464.6551 131.3343)" font-size="18.4958534" font-family="Proxima Nova" id="text6">Space</text><rect style="stroke:#000000;stroke-opacity:1;stroke-width:2;stroke-miterlimit:4;stroke-linecap:butt;stroke-linejoin:miter;fill:#f2f2f2;fill-opacity:1" transform="matrix(1 0 0 1 -322.6218 -292.1986)" x="738.5526" y="436.262482" width="61.6477051" height="42.51053" id="rect7" /><text style="stroke:#ffffff;stroke-opacity:0;stroke-width:0;stroke-miterlimit:4;stroke-linecap:butt;stroke-linejoin:miter;fill:#000000;fill-opacity:1" transform="matrix(1 0 0 1 430.0967 170.8553)" font-size="18.4958534" font-family="Proxima Nova" id="text7">App</text><rect style="stroke:#000000;stroke-opacity:1;stroke-width:2;stroke-miterlimit:4;stroke-linecap:butt;stroke-linejoin:miter;fill:#f2f2f2;fill-opacity:1" transform="matrix(1 0 0 1 -338.2038 -221.657)" x="738.5526" y="423.755127" width="179.367859" height="42.5104675" id="rect8" /><text style="stroke:#ffffff;stroke-opacity:0;stroke-width:0;stroke-miterlimit:4;stroke-linecap:butt;stroke-linejoin:miter;fill:#000000;fill-opacity:1" transform="matrix(1 0 0 1 423.4685 228.8894)" font-size="18.4958534" font-family="Proxima Nova" id="text8">Service Instance</text><rect style="stroke:#000000;stroke-opacity:1;stroke-width:2;stroke-miterlimit:4;stroke-linecap:butt;stroke-linejoin:miter;fill:#f2f2f2;fill-opacity:1" transform="matrix(1 0 0 1 -338.2038 -171.1132)" x="738.5526" y="423.755127" width="179.367859" height="42.5104675" id="rect9" /><text style="stroke:#ffffff;stroke-opacity:0;stroke-width:0;stroke-miterlimit:4;stroke-linecap:butt;stroke-linejoin:miter;fill:#000000;fill-opacity:1" transform="matrix(1 0 0 1 423.4685 279.4333)" font-size="18.4958534" font-family="Proxima Nova" id="text9">Service Instance</text><rect style="stroke:#000000;stroke-opacity:1;stroke-width:2;stroke-miterlimit:4;stroke-linecap:butt;stroke-linejoin:miter;fill:#f2f2f2;fill-opacity:1" transform="matrix(1 0 0 1 -233.3517 -292.1986)" x="738.5526" y="436.262482" width="61.6477051" height="42.51053" id="rect10" /><text style="stroke:#ffffff;stroke-opacity:0;stroke-width:0;stroke-miterlimit:4;stroke-linecap:butt;stroke-linejoin:miter;fill:#000000;fill-opacity:1" transform="matrix(1 0 0 1 519.3668 170.8553)" font-size="18.4958534" font-family="Proxima Nova" id="text10">App</text></g></svg>